<svg xmlns="http://www.w3.org/2000/svg" width="544.01" height="212.157" viewBox="0 0 544.01 212.157"><g transform="translate(-918.99 -666.922)"><path d="M0,0H544V212.157H0Z" transform="translate(919 666.922)" fill="#f4f4f4" opacity="0"/><g transform="translate(171.574 410.531)"><g transform="translate(847.949 280.552)"><path d="M331.169-19.645H316.726" transform="translate(-204.589 35.486)" fill="none" stroke="#272727" stroke-linecap="round" stroke-linejoin="round" stroke-width="1.5"/><g transform="translate(43.149 62.515)"><path d="M321.964-19.645h-5.238" transform="translate(-248.126 19.645)" fill="none" stroke="#272727" stroke-linecap="round" stroke-linejoin="round" stroke-width="1.5"/><path d="M407.6-19.645H379.111" transform="translate(-345.566 19.645)" fill="none" stroke="#272727" stroke-linecap="round" stroke-linejoin="round" stroke-width="1.5"/><path d="M408.336-19.645H379.111" transform="translate(-379.111 19.645)" fill="none" stroke="#272727" stroke-linecap="round" stroke-linejoin="round" stroke-width="1.5"/></g><g transform="translate(8.742 59.235)"><path d="M316.726-19.645h14.737" transform="translate(-313.266 22.923)" fill="none" stroke="#272727" stroke-linecap="round" stroke-linejoin="round" stroke-width="1.5"/><path d="M379.111-19.645h4.718" transform="translate(-357.697 22.923)" fill="none" stroke="#272727" stroke-linecap="round" stroke-linejoin="round" stroke-width="1.5"/><path d="M308.746-23.255a.082.082,0,0,0-.025.059.082.082,0,0,0,.025.059l3.2,3.2a.082.082,0,0,0,.09.018.083.083,0,0,0,.051-.076v-6.392a.083.083,0,0,0-.051-.076.082.082,0,0,0-.09.018Z" transform="translate(-308.722 26.475)" fill="none" stroke="#272727" stroke-linecap="round" stroke-linejoin="round" stroke-width="1.5"/></g><g transform="translate(0 18.96)"><path d="M308.746-23.255a.082.082,0,0,0-.025.059.082.082,0,0,0,.025.059l3.2,3.2a.082.082,0,0,0,.09.018.083.083,0,0,0,.051-.076v-6.392a.083.083,0,0,0-.051-.076.082.082,0,0,0-.09.018Z" transform="translate(-308.722 26.475)" fill="none" stroke="#c2171c" stroke-linecap="round" stroke-linejoin="round" stroke-width="1.5"/><path d="M316.726-19.645h16.147" transform="translate(-313.194 22.923)" fill="none" stroke="#c2171c" stroke-linecap="round" stroke-linejoin="round" stroke-width="1.5" stroke-dasharray="4"/><path d="M379.111-19.645H440.72" transform="translate(-351.109 22.923)" fill="none" stroke="#c2171c" stroke-linecap="round" stroke-linejoin="round" stroke-width="1.5" stroke-dasharray="4"/></g><path d="M379.111-19.645h4.718" transform="translate(-336.199 35.484)" fill="none" stroke="#272727" stroke-linecap="round" stroke-linejoin="round" stroke-width="1.5"/><g transform="translate(93.083)"><path d="M526.057,338.248a130.25,130.25,0,0,1-1.7-21.833c0-20.551,4.013-37.236,8.956-37.236,1.931,0,3.72,2.546,5.183,6.873" transform="translate(-524.354 -279.178)" fill="none" stroke="#dfdfdf" stroke-linecap="round" stroke-linejoin="round" stroke-miterlimit="1.5" stroke-width="1.5" fill-rule="evenodd"/></g><g transform="translate(23.306)"><path d="M526.057,338.248a130.25,130.25,0,0,1-1.7-21.833c0-20.551,4.013-37.236,8.956-37.236,1.931,0,3.72,2.546,5.183,6.873" transform="translate(-524.354 -279.178)" fill="none" stroke="#dfdfdf" stroke-linecap="round" stroke-linejoin="round" stroke-miterlimit="1.5" stroke-width="1.5" fill-rule="evenodd"/></g><path d="M433.96-19.645H379.111" transform="translate(-328.687 35.486)" fill="none" stroke="#272727" stroke-linecap="round" stroke-linejoin="round" stroke-width="1.5"/><g transform="translate(96.909 15.181)"><path d="M527.117,240.055a129.77,129.77,0,0,1,1.741,22.055c0,20.551-4.013,37.236-8.956,37.236-1.908,0-3.677-2.486-5.131-6.72" transform="translate(-514.771 -240.055)" fill="none" stroke="#dfdfdf" stroke-linecap="round" stroke-linejoin="round" stroke-miterlimit="1.5" stroke-width="1.5" fill-rule="evenodd"/></g><g transform="translate(13.709 15.839)"><path d="M316.726-19.645h22.7" transform="translate(-316.726 19.645)" fill="none" stroke="#272727" stroke-linecap="round" stroke-linejoin="round" stroke-width="1.5"/></g><g transform="translate(27.131 15.181)"><path d="M527.117,240.055a129.77,129.77,0,0,1,1.741,22.055c0,20.551-4.013,37.236-8.956,37.236-1.908,0-3.677-2.486-5.131-6.72" transform="translate(-514.771 -240.055)" fill="none" stroke="#dfdfdf" stroke-linecap="round" stroke-linejoin="round" stroke-miterlimit="1.5" stroke-width="1.5" fill-rule="evenodd"/></g><path d="M-8.558-6.454H-11V-4.8h2.867v1.022h-4.14V-9.953h4.131v1.031H-11V-7.45h2.443ZM-3.9-5.05H-6.132l-.424,1.273H-7.909l2.3-6.176H-4.43l2.312,6.176H-3.472ZM-5.788-6.08h1.544L-5.02-8.392Zm5.518.127v2.176H-1.542V-9.953H.867A2.787,2.787,0,0,1,2.091-9.7a1.875,1.875,0,0,1,.812.723A2.017,2.017,0,0,1,3.187-7.91a1.773,1.773,0,0,1-.621,1.432,2.588,2.588,0,0,1-1.72.524Zm0-1.031H.867a1.118,1.118,0,0,0,.77-.238A.864.864,0,0,0,1.9-7.9a1.019,1.019,0,0,0-.267-.734A1,1,0,0,0,.9-8.922H-.27Z" transform="translate(72.395 46.122)" fill="#272727"/><path d="M379.111-19.645h18.322" transform="translate(-281.85 41.883)" fill="none" stroke="#c2171c" stroke-linecap="round" stroke-linejoin="round" stroke-width="1.5" stroke-dasharray="4"/><path d="M336.927-19.645h-20.2" transform="translate(-204.904 74.69)" fill="none" stroke="#c2171c" stroke-linecap="round" stroke-linejoin="round" stroke-width="1.5" stroke-dasharray="4"/><path d="M444.257-19.645H379.111" transform="translate(-336.954 74.69)" fill="none" stroke="#c2171c" stroke-linecap="round" stroke-linejoin="round" stroke-width="1.5" stroke-dasharray="4"/><path d="M393.563-19.645H379.111" transform="translate(-359.389 74.69)" fill="none" stroke="#c2171c" stroke-linecap="round" stroke-linejoin="round" stroke-width="1.5" stroke-dasharray="4"/><path d="M312.058-23.255a.082.082,0,0,1,.025.059.082.082,0,0,1-.025.059l-3.2,3.2a.082.082,0,0,1-.09.018.083.083,0,0,1-.051-.076v-6.392a.083.083,0,0,1,.051-.076.082.082,0,0,1,.09.018Z" transform="translate(-176.501 78.241)" fill="none" stroke="#c2171c" stroke-linecap="round" stroke-linejoin="round" stroke-width="1.5"/><path d="M312.058-23.255a.082.082,0,0,1,.025.059.082.082,0,0,1-.025.059l-3.2,3.2a.082.082,0,0,1-.09.018.083.083,0,0,1-.051-.076v-6.392a.083.083,0,0,1,.051-.076.082.082,0,0,1,.09.018Z" transform="translate(-181.964 39.038)" fill="none" stroke="#272727" stroke-linecap="round" stroke-linejoin="round" stroke-width="1.5"/></g><g transform="translate(747.426 299.167)"><g transform="translate(13.387)"><path d="M199.71-9.783H145.2a3.911,3.911,0,0,0,3.911,3.911H195.8a3.91,3.91,0,0,0,3.91-3.911Z" transform="translate(-145.199 35.656)" fill="none" stroke="#272727" stroke-linecap="round" stroke-miterlimit="10" stroke-width="1.5"/><path d="M158.361-34.568h-4.446a3.358,3.358,0,0,0-3.357,3.358V-8.694H193.88v-7.131" transform="translate(-144.964 34.568)" fill="none" stroke="#272727" stroke-linecap="round" stroke-miterlimit="10" stroke-width="1.5"/><path d="M193.435-17.963V-31.209a3.358,3.358,0,0,0-3.357-3.358H160.7" transform="translate(-144.518 34.568)" fill="none" stroke="#272727" stroke-linecap="round" stroke-miterlimit="10" stroke-width="1.5"/><path d="M189.008-30.831H155.129a1.145,1.145,0,0,0-1.145,1.145V-8.858h36.17V-29.686a1.145,1.145,0,0,0-1.146-1.145Z" transform="translate(-144.813 34.732)" fill="none" stroke="#272727" stroke-linecap="round" stroke-miterlimit="10" stroke-width="1.5"/><path d="M170.871-32.686h.913" transform="translate(-144.072 34.65)" fill="none" stroke="#272727" stroke-linecap="round" stroke-miterlimit="10" stroke-width="1.5"/><path d="M189.1-26.615l-11.2,11.2" transform="translate(-143.763 34.917)" fill="none" stroke="#272727" stroke-linecap="round" stroke-miterlimit="10" stroke-width="1.5"/><path d="M188.9-22.721l-6.375,6.376" transform="translate(-143.56 35.088)" fill="none" stroke="#272727" stroke-linecap="round" stroke-miterlimit="10" stroke-width="1.5"/></g><path d="M-59.82-6.905a2.5,2.5,0,0,1-.841,1.794,2.954,2.954,0,0,1-2,.654A2.656,2.656,0,0,1-64.8-5.371a3.747,3.747,0,0,1-.778-2.509v-.431a4.231,4.231,0,0,1,.359-1.794,2.688,2.688,0,0,1,1.025-1.19,2.872,2.872,0,0,1,1.549-.414,2.878,2.878,0,0,1,1.968.654,2.684,2.684,0,0,1,.863,1.837h-1.454a1.474,1.474,0,0,0-.381-.991,1.409,1.409,0,0,0-1-.308A1.236,1.236,0,0,0-63.73-10a2.921,2.921,0,0,0-.37,1.621v.533a3.126,3.126,0,0,0,.347,1.672,1.213,1.213,0,0,0,1.093.528,1.436,1.436,0,0,0,1.006-.308,1.39,1.39,0,0,0,.381-.953Zm2.341,2.351h-1.406V-12h1.406Zm2.632,0h-1.406V-9.8h1.406Zm-1.488-6.6a.69.69,0,0,1,.211-.519.792.792,0,0,1,.574-.2.794.794,0,0,1,.572.2.686.686,0,0,1,.213.519.688.688,0,0,1-.216.524.8.8,0,0,1-.57.2.8.8,0,0,1-.57-.2.688.688,0,0,1-.214-.527Zm5.056,6.7a2.575,2.575,0,0,1-1.878-.708,2.516,2.516,0,0,1-.725-1.886v-.136A3.169,3.169,0,0,1-53.576-8.6a2.241,2.241,0,0,1,.865-.96,2.429,2.429,0,0,1,1.277-.34,2.177,2.177,0,0,1,1.694.679A2.758,2.758,0,0,1-49.122-7.3v.572h-3.34a1.3,1.3,0,0,0,.41.824,1.238,1.238,0,0,0,.865.31,1.512,1.512,0,0,0,1.265-.587l.688.771a2.1,2.1,0,0,1-.853.7,2.8,2.8,0,0,1-1.191.249Zm-.16-4.3a.877.877,0,0,0-.676.281,1.453,1.453,0,0,0-.332.8H-50.5v-.111a1.036,1.036,0,0,0-.252-.72.9.9,0,0,0-.686-.258Zm4.4-1.037.044.606a1.831,1.831,0,0,1,1.508-.7,1.522,1.522,0,0,1,1.241.49,2.284,2.284,0,0,1,.417,1.464v3.389h-1.4V-7.909a.909.909,0,0,0-.194-.647.868.868,0,0,0-.645-.2.964.964,0,0,0-.887.5v3.7h-1.4V-9.8Zm5.948-1.289V-9.8h.9v1.028h-.9v2.618a.625.625,0,0,0,.111.417.56.56,0,0,0,.427.126,2.234,2.234,0,0,0,.412-.034v1.062a2.884,2.884,0,0,1-.848.126A1.338,1.338,0,0,1-42.1-4.834a1.338,1.338,0,0,1-.386-1.111V-8.771h-.766V-9.8h.766v-1.289ZM-36.5-3.948h-1.04l2.6-7.664h1.04Zm9.492-2.458a.746.746,0,0,0-.291-.633A3.815,3.815,0,0,0-28.344-7.5a7.423,7.423,0,0,1-1.2-.482,1.956,1.956,0,0,1-1.2-1.75,1.7,1.7,0,0,1,.322-1.02,2.1,2.1,0,0,1,.926-.7,3.485,3.485,0,0,1,1.355-.252,3.172,3.172,0,0,1,1.348.274,2.146,2.146,0,0,1,.919.773,2.023,2.023,0,0,1,.327,1.134H-27a.952.952,0,0,0-.305-.754,1.255,1.255,0,0,0-.858-.269,1.341,1.341,0,0,0-.829.225.711.711,0,0,0-.3.594.681.681,0,0,0,.347.577,3.916,3.916,0,0,0,1.02.436,4.409,4.409,0,0,1,1.808.926,1.844,1.844,0,0,1,.567,1.377,1.7,1.7,0,0,1-.693,1.437,3.035,3.035,0,0,1-1.866.521,3.6,3.6,0,0,1-1.483-.3,2.347,2.347,0,0,1-1.02-.817,2.092,2.092,0,0,1-.351-1.2H-29.5q0,1.168,1.4,1.168a1.358,1.358,0,0,0,.81-.211.686.686,0,0,0,.284-.593Zm5.492,1.319a1.757,1.757,0,0,1-1.435.63,1.657,1.657,0,0,1-1.287-.485,2.069,2.069,0,0,1-.453-1.42V-9.8h1.4v3.389q0,.819.747.819a1.012,1.012,0,0,0,.979-.494V-9.8h1.406v5.245h-1.319Zm7.136-2.041a3.146,3.146,0,0,1-.55,1.941,1.764,1.764,0,0,1-1.486.73A1.634,1.634,0,0,1-17.7-5.01v2.472h-1.4V-9.8h1.3l.048.514A1.647,1.647,0,0,1-16.424-9.9a1.776,1.776,0,0,1,1.508.717A3.231,3.231,0,0,1-14.378-7.2Zm-1.4-.1a2.064,2.064,0,0,0-.259-1.13.845.845,0,0,0-.754-.4.917.917,0,0,0-.907.5V-6.11a.933.933,0,0,0,.916.519q1,0,1-1.639Zm6.99.1a3.146,3.146,0,0,1-.55,1.941,1.764,1.764,0,0,1-1.486.73,1.634,1.634,0,0,1-1.285-.553v2.472h-1.4V-9.8h1.3l.048.514A1.647,1.647,0,0,1-10.834-9.9a1.776,1.776,0,0,1,1.508.717A3.231,3.231,0,0,1-8.788-7.2Zm-1.4-.1a2.064,2.064,0,0,0-.259-1.13.845.845,0,0,0-.754-.4.917.917,0,0,0-.907.5V-6.11a.933.933,0,0,0,.916.519q1,0,1-1.639Zm3.747,2.676H-7.848V-12h1.406Zm2.632,0H-5.216V-9.8H-3.81Zm-1.488-6.6a.69.69,0,0,1,.211-.519.792.792,0,0,1,.574-.2.794.794,0,0,1,.572.2.686.686,0,0,1,.213.519.688.688,0,0,1-.216.524.8.8,0,0,1-.57.2.8.8,0,0,1-.57-.2.688.688,0,0,1-.215-.529Zm4.823,5.57A.919.919,0,0,0,.156-5.8a.747.747,0,0,0,.252-.567H1.721a1.8,1.8,0,0,1-.291.977,1.919,1.919,0,0,1-.782.69,2.45,2.45,0,0,1-1.1.245A2.277,2.277,0,0,1-2.226-5.17a2.83,2.83,0,0,1-.65-1.975v-.1A2.8,2.8,0,0,1-2.23-9.174,2.251,2.251,0,0,1-.46-9.9a2.206,2.206,0,0,1,1.578.56,1.982,1.982,0,0,1,.6,1.491H.408a.955.955,0,0,0-.252-.662.843.843,0,0,0-.64-.255.844.844,0,0,0-.739.356,2.062,2.062,0,0,0-.25,1.156V-7.1a2.088,2.088,0,0,0,.247,1.16.855.855,0,0,0,.751.353ZM5.561-4.554a1.556,1.556,0,0,1-.141-.47,1.7,1.7,0,0,1-1.32.567A1.862,1.862,0,0,1,2.819-4.9a1.434,1.434,0,0,1-.507-1.125A1.482,1.482,0,0,1,2.93-7.3a3.05,3.05,0,0,1,1.786-.451h.645v-.3a.864.864,0,0,0-.187-.582.734.734,0,0,0-.589-.218.835.835,0,0,0-.555.17.576.576,0,0,0-.2.465H2.43a1.407,1.407,0,0,1,.281-.843,1.859,1.859,0,0,1,.8-.608A2.9,2.9,0,0,1,4.659-9.9,2.289,2.289,0,0,1,6.2-9.409,1.7,1.7,0,0,1,6.77-8.04v2.274a2.508,2.508,0,0,0,.208,1.13v.082ZM4.4-5.528a1.207,1.207,0,0,0,.572-.138.907.907,0,0,0,.388-.371v-.9H4.838q-1.052,0-1.12.727v.082A.561.561,0,0,0,3.9-5.7a.716.716,0,0,0,.5.172ZM9.133-9.8l.044.606a1.831,1.831,0,0,1,1.508-.7,1.522,1.522,0,0,1,1.241.49,2.284,2.284,0,0,1,.417,1.464v3.389h-1.4V-7.909a.909.909,0,0,0-.194-.647.868.868,0,0,0-.645-.2.964.964,0,0,0-.887.5v3.7h-1.4V-9.8Zm5.948-1.289V-9.8h.9v1.028h-.9v2.618a.625.625,0,0,0,.111.417.56.56,0,0,0,.427.126,2.234,2.234,0,0,0,.412-.034v1.062a2.884,2.884,0,0,1-.848.126,1.338,1.338,0,0,1-1.114-.377,1.338,1.338,0,0,1-.386-1.111V-8.771h-.766V-9.8h.766v-1.289Z" transform="translate(65.574 52.332)" fill="#272727"/></g><g transform="translate(1004.285 296.685)"><path d="M10.594,10.594a.746.746,0,0,0-.291-.633A3.815,3.815,0,0,0,9.256,9.5a7.423,7.423,0,0,1-1.2-.482,1.956,1.956,0,0,1-1.2-1.75,1.7,1.7,0,0,1,.322-1.02,2.1,2.1,0,0,1,.926-.7A3.485,3.485,0,0,1,9.459,5.3a3.172,3.172,0,0,1,1.348.274,2.146,2.146,0,0,1,.919.773,2.023,2.023,0,0,1,.327,1.134H10.6a.952.952,0,0,0-.305-.754,1.255,1.255,0,0,0-.858-.269,1.341,1.341,0,0,0-.829.225.711.711,0,0,0-.3.594.681.681,0,0,0,.347.577,3.916,3.916,0,0,0,1.02.436,4.409,4.409,0,0,1,1.808.926,1.844,1.844,0,0,1,.567,1.377,1.7,1.7,0,0,1-.693,1.437,3.035,3.035,0,0,1-1.866.521,3.6,3.6,0,0,1-1.483-.3,2.347,2.347,0,0,1-1.02-.817,2.092,2.092,0,0,1-.351-1.2H8.1Q8.1,11.4,9.5,11.4a1.358,1.358,0,0,0,.81-.211A.686.686,0,0,0,10.594,10.594Zm6.913-.053.688-3.34h1.353L18.21,12.446H17.036l-.994-3.3-.994,3.3H13.88L12.542,7.2h1.353l.684,3.335.96-3.335h1.013Zm4.213,1.9H20.313V7.2h1.406Zm-1.488-6.6a.69.69,0,0,1,.211-.519.909.909,0,0,1,1.146,0,.74.74,0,0,1,0,1.042.9.9,0,0,1-1.139,0,.688.688,0,0,1-.219-.526Zm4.319.068V7.2h.9V8.229h-.9v2.618a.625.625,0,0,0,.111.417.56.56,0,0,0,.427.126,2.234,2.234,0,0,0,.412-.034v1.062a2.884,2.884,0,0,1-.848.126,1.338,1.338,0,0,1-1.5-1.488V8.229h-.766V7.2h.766V5.911Zm3.859,5.5a.919.919,0,0,0,.63-.213.747.747,0,0,0,.252-.567H30.6a1.8,1.8,0,0,1-.291.977,1.919,1.919,0,0,1-.783.688,2.45,2.45,0,0,1-1.1.245,2.277,2.277,0,0,1-1.774-.715A2.83,2.83,0,0,1,26,9.854V9.76a2.8,2.8,0,0,1,.645-1.934A2.251,2.251,0,0,1,28.423,7.1,2.206,2.206,0,0,1,30,7.664a1.982,1.982,0,0,1,.6,1.491H29.291a.955.955,0,0,0-.252-.662.939.939,0,0,0-1.379.1,2.062,2.062,0,0,0-.25,1.156V9.9a2.088,2.088,0,0,0,.247,1.163.855.855,0,0,0,.752.35Zm4.363-3.641a1.749,1.749,0,0,1,1.4-.669q1.706,0,1.731,1.983v3.359H34.5V9.125a.974.974,0,0,0-.194-.667.831.831,0,0,0-.645-.216.954.954,0,0,0-.892.475v3.728h-1.4V5h1.4Zm7.1,5.279H38.831l2.6-7.664h1.042Zm9.817-2.06H47.14l-.485,1.454H45.109l2.627-7.058h1.348l2.642,7.058H50.18ZM47.533,9.814H49.3l-.89-2.642Zm6.942,1.6a.919.919,0,0,0,.63-.213.747.747,0,0,0,.252-.567h1.314a1.8,1.8,0,0,1-.291.977,1.919,1.919,0,0,1-.783.688,2.45,2.45,0,0,1-1.1.245,2.277,2.277,0,0,1-1.774-.715,2.83,2.83,0,0,1-.65-1.975V9.76a2.8,2.8,0,0,1,.645-1.934A2.251,2.251,0,0,1,54.489,7.1a2.206,2.206,0,0,1,1.578.56,1.982,1.982,0,0,1,.6,1.491h-1.31a.955.955,0,0,0-.252-.662.939.939,0,0,0-1.379.1,2.062,2.062,0,0,0-.25,1.156V9.9a2.089,2.089,0,0,0,.247,1.163.855.855,0,0,0,.752.35Zm5.177,0a.919.919,0,0,0,.63-.213.747.747,0,0,0,.252-.567h1.314a1.8,1.8,0,0,1-.291.977,1.919,1.919,0,0,1-.783.688,2.45,2.45,0,0,1-1.1.245,2.277,2.277,0,0,1-1.774-.715,2.83,2.83,0,0,1-.65-1.975V9.76a2.8,2.8,0,0,1,.65-1.934A2.251,2.251,0,0,1,59.667,7.1a2.206,2.206,0,0,1,1.578.56,1.982,1.982,0,0,1,.6,1.491h-1.31a.955.955,0,0,0-.252-.662.939.939,0,0,0-1.379.1,2.062,2.062,0,0,0-.25,1.156V9.9a2.088,2.088,0,0,0,.246,1.16.855.855,0,0,0,.752.353Zm5.41,1.13a2.575,2.575,0,0,1-1.878-.708,2.516,2.516,0,0,1-.725-1.886V9.814A3.169,3.169,0,0,1,62.764,8.4a2.241,2.241,0,0,1,.865-.96,2.429,2.429,0,0,1,1.278-.34,2.177,2.177,0,0,1,1.694.679A2.758,2.758,0,0,1,67.219,9.7v.572h-3.34a1.3,1.3,0,0,0,.41.824,1.238,1.238,0,0,0,.865.31,1.512,1.512,0,0,0,1.265-.587l.688.771a2.1,2.1,0,0,1-.853.7,2.8,2.8,0,0,1-1.192.249Zm-.16-4.3a.877.877,0,0,0-.676.281,1.453,1.453,0,0,0-.332.8h1.949V9.213a1.036,1.036,0,0,0-.252-.72.905.905,0,0,0-.691-.255ZM70.855,11a.451.451,0,0,0-.255-.4,2.891,2.891,0,0,0-.817-.264q-1.871-.393-1.871-1.59a1.441,1.441,0,0,1,.579-1.166,2.337,2.337,0,0,1,1.516-.48,2.515,2.515,0,0,1,1.6.47A1.482,1.482,0,0,1,72.2,8.8H70.8a.678.678,0,0,0-.194-.5A.821.821,0,0,0,70,8.1a.839.839,0,0,0-.548.16.5.5,0,0,0-.194.407.432.432,0,0,0,.221.376,2.269,2.269,0,0,0,.744.247,6.078,6.078,0,0,1,.882.235,1.45,1.45,0,0,1,1.11,1.411A1.368,1.368,0,0,1,71.6,12.1a2.656,2.656,0,0,1-1.59.444,2.774,2.774,0,0,1-1.171-.235,1.964,1.964,0,0,1-.8-.645,1.5,1.5,0,0,1-.291-.885h1.328a.731.731,0,0,0,.276.572,1.1,1.1,0,0,0,.688.2,1.014,1.014,0,0,0,.608-.153.475.475,0,0,0,.207-.4Zm5.1,0a.451.451,0,0,0-.255-.4,2.891,2.891,0,0,0-.817-.264q-1.871-.393-1.871-1.59A1.441,1.441,0,0,1,73.6,7.572,2.337,2.337,0,0,1,75.111,7.1a2.515,2.515,0,0,1,1.6.47,1.482,1.482,0,0,1,.6,1.222h-1.4a.678.678,0,0,0-.194-.5.821.821,0,0,0-.606-.2.838.838,0,0,0-.548.16.5.5,0,0,0-.194.407.432.432,0,0,0,.221.376,2.269,2.269,0,0,0,.744.247,6.078,6.078,0,0,1,.882.235,1.45,1.45,0,0,1,1.11,1.411,1.368,1.368,0,0,1-.616,1.161,2.656,2.656,0,0,1-1.59.444,2.774,2.774,0,0,1-1.171-.235,1.964,1.964,0,0,1-.8-.645,1.5,1.5,0,0,1-.291-.885h1.328a.731.731,0,0,0,.276.572,1.1,1.1,0,0,0,.688.2,1.014,1.014,0,0,0,.608-.153.475.475,0,0,0,.2-.387ZM5.833,23.61V26.1H4.379V19.039H7.132a3.186,3.186,0,0,1,1.4.291,2.143,2.143,0,0,1,.928.827,2.3,2.3,0,0,1,.325,1.219,2.027,2.027,0,0,1-.71,1.636,2.958,2.958,0,0,1-1.966.6Zm0-1.178h1.3a1.277,1.277,0,0,0,.88-.271.987.987,0,0,0,.3-.776,1.164,1.164,0,0,0-.305-.839,1.141,1.141,0,0,0-.843-.33H5.833Zm4.576.994a3.111,3.111,0,0,1,.3-1.391,2.2,2.2,0,0,1,.865-.945,2.525,2.525,0,0,1,1.311-.334,2.388,2.388,0,0,1,1.733.65,2.607,2.607,0,0,1,.749,1.765l.01.359a2.742,2.742,0,0,1-.674,1.937,2.342,2.342,0,0,1-1.808.73,2.354,2.354,0,0,1-1.811-.727,2.79,2.79,0,0,1-.676-1.978Zm1.4.1a1.955,1.955,0,0,0,.281,1.142,1.011,1.011,0,0,0,1.6,0,2.14,2.14,0,0,0,.286-1.248,1.936,1.936,0,0,0-.286-1.134.93.93,0,0,0-.8-.4.915.915,0,0,0-.8.4,2.176,2.176,0,0,0-.28,1.242ZM17.72,26.1H16.314V20.852H17.72Zm-1.488-6.6a.69.69,0,0,1,.211-.519.909.909,0,0,1,1.146,0,.74.74,0,0,1,0,1.042.9.9,0,0,1-1.139,0,.688.688,0,0,1-.218-.528Zm3.931,1.357.044.606a1.831,1.831,0,0,1,1.508-.7,1.522,1.522,0,0,1,1.241.49,2.284,2.284,0,0,1,.417,1.464V26.1h-1.4V22.743a.909.909,0,0,0-.194-.647.868.868,0,0,0-.645-.2.964.964,0,0,0-.887.5v3.7h-1.4V20.852Zm5.948-1.289v1.289h.9V21.88h-.9V24.5a.625.625,0,0,0,.111.417.56.56,0,0,0,.427.126,2.234,2.234,0,0,0,.412-.034v1.062a2.884,2.884,0,0,1-.848.126,1.338,1.338,0,0,1-1.5-1.488V21.88h-.766V20.852h.766v-1.29ZM30.7,26.7H29.66l2.6-7.664H33.3Zm11.373-2.957a2.5,2.5,0,0,1-.841,1.794,2.954,2.954,0,0,1-2,.654A2.656,2.656,0,0,1,37.1,25.28a3.747,3.747,0,0,1-.778-2.509V22.34a4.231,4.231,0,0,1,.359-1.794,2.688,2.688,0,0,1,1.025-1.19,3.2,3.2,0,0,1,3.517.24,2.684,2.684,0,0,1,.863,1.837H40.63a1.474,1.474,0,0,0-.381-.991,1.409,1.409,0,0,0-1-.308,1.236,1.236,0,0,0-1.088.521,2.921,2.921,0,0,0-.371,1.617v.533a3.126,3.126,0,0,0,.347,1.672,1.213,1.213,0,0,0,1.093.528,1.436,1.436,0,0,0,1.01-.305,1.39,1.39,0,0,0,.381-.953Zm.645-.32a3.111,3.111,0,0,1,.3-1.391,2.2,2.2,0,0,1,.865-.945,2.525,2.525,0,0,1,1.311-.334,2.388,2.388,0,0,1,1.733.65,2.607,2.607,0,0,1,.749,1.765l.01.359a2.742,2.742,0,0,1-.674,1.937,2.612,2.612,0,0,1-3.619,0,2.79,2.79,0,0,1-.676-1.978Zm1.4.1a1.955,1.955,0,0,0,.281,1.142,1.011,1.011,0,0,0,1.6,0,2.14,2.14,0,0,0,.286-1.248A1.936,1.936,0,0,0,46,22.292a.93.93,0,0,0-.8-.4.915.915,0,0,0-.8.4,2.176,2.176,0,0,0-.28,1.236Zm5.72-2.676.044.606a1.831,1.831,0,0,1,1.508-.7,1.522,1.522,0,0,1,1.241.49,2.284,2.284,0,0,1,.417,1.464V26.1h-1.4V22.743a.909.909,0,0,0-.194-.647.868.868,0,0,0-.645-.2.964.964,0,0,0-.887.5v3.7h-1.4V20.852Zm5.948-1.289v1.289h.9V21.88h-.9V24.5a.625.625,0,0,0,.111.417.56.56,0,0,0,.427.126,2.234,2.234,0,0,0,.412-.034v1.062a2.884,2.884,0,0,1-.848.126,1.338,1.338,0,0,1-1.5-1.488V21.88h-.766V20.852h.766v-1.29Zm4.625,2.6a3.806,3.806,0,0,0-.5-.039,1.026,1.026,0,0,0-1.042.538V26.1h-1.4V20.852h1.323l.039.625A1.3,1.3,0,0,1,60,20.755a1.468,1.468,0,0,1,.436.063Zm.281,1.26a3.111,3.111,0,0,1,.3-1.391,2.2,2.2,0,0,1,.865-.945,2.525,2.525,0,0,1,1.311-.334,2.388,2.388,0,0,1,1.733.65,2.607,2.607,0,0,1,.749,1.765l.01.359a2.742,2.742,0,0,1-.674,1.937,2.612,2.612,0,0,1-3.619,0,2.79,2.79,0,0,1-.676-1.978Zm1.4.1a1.955,1.955,0,0,0,.281,1.142,1.011,1.011,0,0,0,1.6,0,2.14,2.14,0,0,0,.286-1.248,1.936,1.936,0,0,0-.286-1.134.93.93,0,0,0-.8-.4.915.915,0,0,0-.8.4,2.176,2.176,0,0,0-.273,1.25ZM68,26.1H66.6V18.651H68Zm2.632,0h-1.4V18.651h1.406Zm3.568.1a2.575,2.575,0,0,1-1.878-.708A2.516,2.516,0,0,1,71.6,23.6v-.136a3.169,3.169,0,0,1,.305-1.413,2.241,2.241,0,0,1,.865-.96,2.429,2.429,0,0,1,1.277-.337,2.177,2.177,0,0,1,1.694.679,2.758,2.758,0,0,1,.618,1.925v.572h-3.34a1.3,1.3,0,0,0,.41.824,1.238,1.238,0,0,0,.865.31,1.512,1.512,0,0,0,1.265-.587l.688.771a2.1,2.1,0,0,1-.853.7,2.8,2.8,0,0,1-1.194.246Zm-.16-4.3a.877.877,0,0,0-.676.281,1.453,1.453,0,0,0-.332.8h1.949V22.87a1.036,1.036,0,0,0-.252-.72.905.905,0,0,0-.684-.261Zm6.06.276a3.806,3.806,0,0,0-.5-.039,1.026,1.026,0,0,0-1.042.538V26.1h-1.4V20.852h1.323l.039.625a1.3,1.3,0,0,1,1.168-.722,1.468,1.468,0,0,1,.436.063Z" transform="translate(-4.379 40.297)" fill="#272727"/><g transform="translate(14.162)"><path d="M28.44-7.936a1.182,1.182,0,0,0-1.182-1.182,1.182,1.182,0,0,0-1.182,1.182,1.182,1.182,0,0,0,1.182,1.182A1.182,1.182,0,0,0,28.44-7.936Z" transform="translate(-1.496 35.333)" fill="none" stroke="#272727" stroke-linecap="round" stroke-linejoin="round" stroke-width="1.5"/><path d="M33.581-7.936A1.182,1.182,0,0,0,32.4-9.118a1.182,1.182,0,0,0-1.182,1.182A1.182,1.182,0,0,0,32.4-6.753,1.182,1.182,0,0,0,33.581-7.936Z" transform="translate(-1.487 35.333)" fill="none" stroke="#272727" stroke-linecap="round" stroke-linejoin="round" stroke-width="1.5"/><path d="M38.721-7.936a1.183,1.183,0,0,0-1.182-1.182,1.183,1.183,0,0,0-1.182,1.182,1.183,1.183,0,0,0,1.182,1.182,1.183,1.183,0,0,0,1.182-1.182Z" transform="translate(-1.477 35.333)" fill="none" stroke="#272727" stroke-linecap="round" stroke-linejoin="round" stroke-width="1.5"/><path d="M12.87-13.024V-27.707" transform="translate(-1.52 35.298)" fill="none" stroke="#272727" stroke-linecap="round" stroke-linejoin="round" stroke-width="1.5"/><path d="M37.6-18.459v-9.248" transform="translate(-1.475 35.299)" fill="none" stroke="#272727" stroke-linecap="round" stroke-linejoin="round" stroke-width="1.5"/><path d="M37.6-13.045v-3.182" transform="translate(-1.475 35.32)" fill="none" stroke="#272727" stroke-linecap="round" stroke-linejoin="round" stroke-width="1.5"/><path d="M15.115-7.934a1.9,1.9,0,0,1-1.9,1.9,1.9,1.9,0,0,1-1.9-1.9,1.9,1.9,0,0,1,1.9-1.9" transform="translate(-1.523 35.331)" fill="none" stroke="#272727" stroke-linecap="round" stroke-linejoin="round" stroke-width="1.5"/><path d="M9.448-24.888a3.98,3.98,0,0,1,0-5.628" transform="translate(-1.529 35.293)" fill="none" stroke="#272727" stroke-linecap="round" stroke-linejoin="round" stroke-width="1.5"/><path d="M7.175-22.6a7.2,7.2,0,0,1-2.112-5.094,7.2,7.2,0,0,1,2.112-5.095" transform="translate(-1.535 35.289)" fill="none" stroke="#272727" stroke-linecap="round" stroke-linejoin="round" stroke-width="1.5"/><path d="M4.685-20.108A10.74,10.74,0,0,1,2.71-32.578" transform="translate(-1.541 35.29)" fill="none" stroke="#272727" stroke-linecap="round" stroke-linejoin="round" stroke-width="1.5"/><path d="M3.707-34.168a10.719,10.719,0,0,1,.975-1.117" transform="translate(-1.537 35.285)" fill="none" stroke="#272727" stroke-linecap="round" stroke-linejoin="round" stroke-width="1.5"/><path d="M41.029-24.888a3.98,3.98,0,0,0,0-5.628" transform="translate(-1.469 35.293)" fill="none" stroke="#272727" stroke-linecap="round" stroke-linejoin="round" stroke-width="1.5"/><path d="M43.3-22.6a7.2,7.2,0,0,0,2.112-5.094A7.2,7.2,0,0,0,43.3-32.789" transform="translate(-1.465 35.289)" fill="none" stroke="#272727" stroke-linecap="round" stroke-linejoin="round" stroke-width="1.5"/><path d="M45.8-20.1a10.733,10.733,0,0,0,0-15.181" transform="translate(-1.46 35.285)" fill="none" stroke="#272727" stroke-linecap="round" stroke-linejoin="round" stroke-width="1.5"/><path d="M38-13.111H12.546A5.744,5.744,0,0,0,6.8-7.367v6.79H43.74v-6.79A5.743,5.743,0,0,0,38-13.111Z" transform="translate(-1.532 35.325)" fill="none" stroke="#272727" stroke-linecap="round" stroke-linejoin="round" stroke-width="1.5"/></g></g><g transform="translate(1257.41 294.203)"><g transform="translate(4.15)"><g transform="translate(25.702 39.712) rotate(180)"><path d="M21.3,39.712h4.4V0H0V10.658" fill="none" stroke="#272727" stroke-linecap="round" stroke-linejoin="round" stroke-miterlimit="10" stroke-width="1.5"/></g><g transform="translate(7.332)"><path d="M-77.026,25.854V0H-95.4" transform="translate(95.397)" fill="none" stroke="#272727" stroke-linecap="round" stroke-linejoin="round" stroke-miterlimit="10" stroke-width="1.5"/></g><g transform="translate(5.338 4.341)"><path d="M0,0H15.025" fill="none" stroke="#272727" stroke-linecap="round" stroke-linejoin="round" stroke-miterlimit="10" stroke-width="1.5"/></g><g transform="translate(5.338 8.117)"><path d="M0,0H15.025" fill="none" stroke="#272727" stroke-linecap="round" stroke-linejoin="round" stroke-miterlimit="10" stroke-width="1.5"/></g><g transform="translate(10.909 25.855) rotate(-90)"><ellipse cx="1.94" cy="1.941" rx="1.94" ry="1.941" transform="translate(0 0)" fill="none" stroke="#272727" stroke-linecap="round" stroke-linejoin="round" stroke-miterlimit="10" stroke-width="1.5"/></g></g><path d="M5.925,10.04H4.767v2.584H3.313V5.566H5.935a2.965,2.965,0,0,1,1.929.557A1.924,1.924,0,0,1,8.543,7.7,2.171,2.171,0,0,1,8.23,8.9a2.132,2.132,0,0,1-.948.768L8.81,12.556v.068H7.249ZM4.767,8.862H5.94a1.2,1.2,0,0,0,.848-.279,1,1,0,0,0,.3-.768A1.066,1.066,0,0,0,6.8,7.03a1.179,1.179,0,0,0-.87-.286H4.767Zm8.866,2.307h-2.55L10.6,12.624H9.052L11.68,5.566h1.348l2.642,7.058H14.123ZM11.476,9.992h1.765L12.353,7.35Zm4.853,2.632V5.566H18.5a3.3,3.3,0,0,1,1.665.419,2.924,2.924,0,0,1,1.146,1.193,3.678,3.678,0,0,1,.412,1.757V9.26a3.689,3.689,0,0,1-.4,1.75,2.9,2.9,0,0,1-1.145,1.19,3.323,3.323,0,0,1-1.663.427Zm1.454-5.88v4.712h.7a1.579,1.579,0,0,0,1.3-.557,2.519,2.519,0,0,0,.467-1.6V8.93A2.559,2.559,0,0,0,19.8,7.3a1.574,1.574,0,0,0-1.3-.555Zm6.544,5.88H22.873V5.566h1.454Zm6.69-7.058v4.649a2.38,2.38,0,0,1-.725,1.832,2.794,2.794,0,0,1-1.98.674,2.825,2.825,0,0,1-1.963-.654,2.34,2.34,0,0,1-.742-1.8v-4.7h1.454v4.659a1.345,1.345,0,0,0,.332,1.011,1.275,1.275,0,0,0,.919.318q1.226,0,1.246-1.289v-4.7Zm4.853,5.206a.746.746,0,0,0-.291-.633,3.815,3.815,0,0,0-1.047-.465,7.423,7.423,0,0,1-1.2-.482,1.956,1.956,0,0,1-1.2-1.75,1.7,1.7,0,0,1,.322-1.02,2.1,2.1,0,0,1,.926-.7,3.485,3.485,0,0,1,1.355-.252,3.172,3.172,0,0,1,1.348.274A2.146,2.146,0,0,1,37,6.516a2.023,2.023,0,0,1,.327,1.134H35.874a.952.952,0,0,0-.3-.754,1.255,1.255,0,0,0-.858-.269,1.341,1.341,0,0,0-.829.225.711.711,0,0,0-.3.594.681.681,0,0,0,.347.577,3.916,3.916,0,0,0,1.02.436,4.409,4.409,0,0,1,1.808.926,1.844,1.844,0,0,1,.567,1.377,1.7,1.7,0,0,1-.693,1.437,3.035,3.035,0,0,1-1.866.521,3.6,3.6,0,0,1-1.483-.3,2.347,2.347,0,0,1-1.02-.817,2.092,2.092,0,0,1-.351-1.2H33.37q0,1.168,1.4,1.168a1.358,1.358,0,0,0,.81-.211.686.686,0,0,0,.29-.588ZM9.881,24.423a.746.746,0,0,0-.291-.633,3.815,3.815,0,0,0-1.047-.465,7.423,7.423,0,0,1-1.2-.482,1.956,1.956,0,0,1-1.2-1.75,1.7,1.7,0,0,1,.322-1.02,2.1,2.1,0,0,1,.926-.7,3.485,3.485,0,0,1,1.355-.252,3.172,3.172,0,0,1,1.348.274,2.146,2.146,0,0,1,.919.773A2.023,2.023,0,0,1,11.34,21.3H9.886a.952.952,0,0,0-.305-.754,1.255,1.255,0,0,0-.858-.269,1.341,1.341,0,0,0-.829.225.711.711,0,0,0-.3.594.681.681,0,0,0,.347.577,3.916,3.916,0,0,0,1.02.436,4.409,4.409,0,0,1,1.808.926,1.844,1.844,0,0,1,.567,1.377,1.7,1.7,0,0,1-.693,1.437,3.035,3.035,0,0,1-1.866.521,3.6,3.6,0,0,1-1.483-.3,2.347,2.347,0,0,1-1.02-.817,2.092,2.092,0,0,1-.351-1.2H7.385q0,1.168,1.4,1.168a1.358,1.358,0,0,0,.81-.211A.686.686,0,0,0,9.881,24.423Zm4.765,1.949a2.575,2.575,0,0,1-1.878-.708,2.516,2.516,0,0,1-.725-1.886v-.136a3.169,3.169,0,0,1,.3-1.413,2.241,2.241,0,0,1,.865-.96,2.429,2.429,0,0,1,1.277-.337,2.177,2.177,0,0,1,1.694.679,2.758,2.758,0,0,1,.618,1.925v.572h-3.34a1.3,1.3,0,0,0,.41.824,1.238,1.238,0,0,0,.865.31A1.512,1.512,0,0,0,16,24.656l.688.771a2.1,2.1,0,0,1-.853.7A2.8,2.8,0,0,1,14.646,26.372Zm-.16-4.3a.877.877,0,0,0-.676.281,1.453,1.453,0,0,0-.332.8h1.949v-.111a1.036,1.036,0,0,0-.252-.72.9.9,0,0,0-.689-.255Zm6.06.276a3.806,3.806,0,0,0-.5-.039A1.026,1.026,0,0,0,19,22.843v3.432H17.6V21.03h1.323l.039.625a1.3,1.3,0,0,1,1.168-.722,1.468,1.468,0,0,1,.436.063Zm2.724,2.22.974-3.534h1.464l-1.769,5.245H22.6L20.832,21.03H22.3Zm5.468,1.808a2.575,2.575,0,0,1-1.878-.708,2.516,2.516,0,0,1-.725-1.886v-.136a3.169,3.169,0,0,1,.305-1.413,2.241,2.241,0,0,1,.865-.96,2.429,2.429,0,0,1,1.277-.337,2.177,2.177,0,0,1,1.694.679,2.758,2.758,0,0,1,.618,1.925v.572h-3.34a1.3,1.3,0,0,0,.41.824,1.238,1.238,0,0,0,.865.31,1.512,1.512,0,0,0,1.265-.587l.688.771a2.1,2.1,0,0,1-.853.7,2.8,2.8,0,0,1-1.19.242Zm-.16-4.3a.877.877,0,0,0-.676.281,1.453,1.453,0,0,0-.332.8h1.949v-.111a1.036,1.036,0,0,0-.252-.72.9.9,0,0,0-.688-.259Zm6.06.276a3.806,3.806,0,0,0-.5-.039,1.026,1.026,0,0,0-1.042.538v3.432H31.7V21.03h1.323l.039.625a1.3,1.3,0,0,1,1.168-.722,1.468,1.468,0,0,1,.436.063Z" transform="translate(-3.313 45.083)" fill="#272727"/></g><g transform="translate(952.315 375.276)"><path d="M0,29.2v7.2a3.542,3.542,0,0,0,3.542,3.542H39.8" transform="translate(89.896 -28.982)" fill="none" stroke="#272727" stroke-linecap="round" stroke-linejoin="round" stroke-miterlimit="1.5" stroke-width="1.5" fill-rule="evenodd"/><path d="M0,8.26V3.542A3.542,3.542,0,0,1,3.542,0h6.845" transform="translate(322.424 10.955) rotate(180)" fill="none" stroke="#272727" stroke-linecap="round" stroke-linejoin="round" stroke-miterlimit="1.5" stroke-width="1.5" fill-rule="evenodd"/><g transform="translate(305.513 10.955) rotate(90)"><path d="M0,.716V6.379A3.542,3.542,0,0,0,3.542,9.921H71.361" transform="translate(9.921 99.312) rotate(90)" fill="none" stroke="#272727" stroke-linecap="round" stroke-linejoin="round" stroke-miterlimit="1.5" stroke-width="1.5" fill-rule="evenodd"/><path d="M0,9.634V3.542A3.542,3.542,0,0,1,3.542,0h95.77" transform="translate(0 99.312) rotate(-90)" fill="none" stroke="#272727" stroke-linecap="round" stroke-linejoin="round" stroke-miterlimit="1.5" stroke-width="1.5" fill-rule="evenodd"/></g><path d="M58.606,10.908V29.536a3.542,3.542,0,0,1-3.542,3.542h-153.3" transform="translate(147.697 15.535)" fill="none" stroke="#272727" stroke-linecap="round" stroke-linejoin="round" stroke-miterlimit="1.5" stroke-width="1.5" fill-rule="evenodd"/><path d="M423.42-19.645H379.111" transform="translate(-379.111 68.257)" fill="none" stroke="#272727" stroke-linecap="round" stroke-linejoin="round" stroke-width="1.5"/></g><g transform="translate(867.55 359.238) rotate(90)"><path d="M0,0V29.256A3.542,3.542,0,0,0,3.542,32.8H18.533" transform="translate(31.852 78.487) rotate(-90)" fill="none" stroke="#272727" stroke-linecap="round" stroke-linejoin="round" stroke-miterlimit="1.5" stroke-width="1.5" fill-rule="evenodd"/><path d="M.024,3.261a.083.083,0,0,0,0,.118L3.261,6.615A.083.083,0,0,0,3.4,6.556V.083A.083.083,0,0,0,3.261.024Z" transform="translate(0 75.167)" fill="none" stroke="#272727" stroke-linecap="round" stroke-linejoin="round" stroke-width="1.5"/><path d="M0,0H49.7" transform="translate(64.65 53.108) rotate(-90)" fill="none" stroke="#272727" stroke-linecap="round" stroke-linejoin="round" stroke-width="1.5"/><path d="M.024,3.261a.083.083,0,0,0,0,.118L3.261,6.615A.083.083,0,0,0,3.4,6.556V.083A.083.083,0,0,0,3.261.024Z" transform="translate(67.97) rotate(90)" fill="none" stroke="#272727" stroke-linecap="round" stroke-linejoin="round" stroke-width="1.5"/><path d="M0,0H22.4" transform="translate(25.8 78.487) rotate(180)" fill="none" stroke="#272727" stroke-linecap="round" stroke-linejoin="round" stroke-width="1.5"/></g><g transform="translate(881.486 392.863)"><g transform="translate(0.945)"><path d="M17.307,11.876H42.842A18.125,18.125,0,0,0,60.968-6.251,18.13,18.13,0,0,0,49.676-23.044" transform="translate(8.687 37.764)" fill="none" stroke="#272727" stroke-linecap="round" stroke-linejoin="round" stroke-width="1.5"/><path d="M19.015-28.133a18.615,18.615,0,0,0-4.268,11.89,18.567,18.567,0,0,0,.212,2.664c-.072,0-.14-.009-.212-.009a14.147,14.147,0,1,0,0,28.294H22.7" transform="translate(-0.6 34.935)" fill="none" stroke="#272727" stroke-linecap="round" stroke-linejoin="round" stroke-width="1.5"/><path d="M48.86-18.664a18.238,18.238,0,0,0-4.047-.453c-.258,0-.509.028-.764.039A18.689,18.689,0,0,0,26.124-32.5a18.633,18.633,0,0,0-12.363,4.671" transform="translate(6.716 32.505)" fill="none" stroke="#272727" stroke-linecap="round" stroke-linejoin="round" stroke-width="1.5"/><path d="M33.228-23.875l.745,4.106" transform="translate(17.538 37.302)" fill="none" stroke="#272727" stroke-linecap="round" stroke-linejoin="round" stroke-width="1.5"/><path d="M9.829-18.779l.909,4.473" transform="translate(4.53 40.135)" fill="none" stroke="#272727" stroke-linecap="round" stroke-linejoin="round" stroke-width="1.5"/><path d="M23.87-18.779A14.56,14.56,0,0,1,38.43-4.219" transform="translate(12.335 40.135)" fill="none" stroke="#272727" stroke-linecap="round" stroke-linejoin="round" stroke-width="1.5"/></g><path d="M-51.784-4.554h-1.454L-56.069-9.2v4.644h-1.454v-7.058h1.454l2.836,4.654v-4.654h1.449Zm3.592.1a2.575,2.575,0,0,1-1.878-.708A2.516,2.516,0,0,1-50.8-7.048v-.136A3.168,3.168,0,0,1-50.489-8.6a2.241,2.241,0,0,1,.865-.96,2.429,2.429,0,0,1,1.277-.34,2.177,2.177,0,0,1,1.694.679A2.758,2.758,0,0,1-46.035-7.3v.572h-3.34a1.3,1.3,0,0,0,.41.824,1.238,1.238,0,0,0,.865.31,1.512,1.512,0,0,0,1.265-.587l.688.771a2.1,2.1,0,0,1-.853.7,2.8,2.8,0,0,1-1.192.249Zm-.16-4.3a.877.877,0,0,0-.676.281,1.453,1.453,0,0,0-.332.8h1.949v-.111a1.036,1.036,0,0,0-.252-.72.9.9,0,0,0-.689-.258Zm4.79-2.327V-9.8h.9v1.028h-.9v2.618a.625.625,0,0,0,.111.417.56.56,0,0,0,.427.126,2.234,2.234,0,0,0,.412-.034v1.062a2.884,2.884,0,0,1-.848.126,1.338,1.338,0,0,1-1.114-.377,1.338,1.338,0,0,1-.386-1.111V-8.771h-.766V-9.8h.766v-1.289Zm6.239,4.63.688-3.34h1.353L-36.62-4.554h-1.173l-.994-3.3-.994,3.3h-1.168L-42.287-9.8h1.353l.684,3.335.96-3.335h1.013Zm2.516-.766a3.111,3.111,0,0,1,.3-1.391,2.2,2.2,0,0,1,.865-.945A2.525,2.525,0,0,1-32.33-9.9a2.388,2.388,0,0,1,1.733.65,2.607,2.607,0,0,1,.749,1.765l.01.359a2.742,2.742,0,0,1-.674,1.937,2.342,2.342,0,0,1-1.808.73,2.354,2.354,0,0,1-1.811-.727,2.79,2.79,0,0,1-.676-1.978Zm1.4.1a1.955,1.955,0,0,0,.281,1.142.928.928,0,0,0,.8.4.93.93,0,0,0,.8-.39,2.14,2.14,0,0,0,.286-1.248,1.936,1.936,0,0,0-.286-1.134.93.93,0,0,0-.8-.4.915.915,0,0,0-.8.4,2.176,2.176,0,0,0-.28,1.224Zm7.378-1.362a3.806,3.806,0,0,0-.5-.039,1.026,1.026,0,0,0-1.042.538v3.432h-1.4V-9.8h1.323l.039.625A1.3,1.3,0,0,1-26.445-9.9a1.468,1.468,0,0,1,.436.063Zm2.579,1.828-.5.5v1.6h-1.4V-12h1.4v4.125l.271-.349,1.34-1.576h1.682l-1.9,2.186,2.06,3.059h-1.6ZM-13.5-6h-2.55l-.485,1.454h-1.546l2.627-7.058h1.348l2.642,7.058h-1.546ZM-15.66-7.179H-13.9l-.887-2.642Zm6.942,1.6a.919.919,0,0,0,.63-.213.747.747,0,0,0,.252-.567h1.314a1.8,1.8,0,0,1-.291.977,1.919,1.919,0,0,1-.783.688,2.45,2.45,0,0,1-1.1.245,2.277,2.277,0,0,1-1.774-.715,2.83,2.83,0,0,1-.65-1.975v-.1a2.8,2.8,0,0,1,.645-1.934A2.251,2.251,0,0,1-8.7-9.9a2.206,2.206,0,0,1,1.578.56,1.982,1.982,0,0,1,.6,1.491H-7.835a.955.955,0,0,0-.252-.662.843.843,0,0,0-.64-.255.844.844,0,0,0-.739.356,2.062,2.062,0,0,0-.25,1.156V-7.1a2.088,2.088,0,0,0,.248,1.16.855.855,0,0,0,.751.353Zm5.177,0a.919.919,0,0,0,.63-.213.747.747,0,0,0,.252-.567h1.314a1.8,1.8,0,0,1-.291.977,1.919,1.919,0,0,1-.783.688,2.45,2.45,0,0,1-1.1.245A2.277,2.277,0,0,1-5.29-5.172a2.83,2.83,0,0,1-.65-1.975V-7.24A2.8,2.8,0,0,1-5.3-9.174,2.251,2.251,0,0,1-3.525-9.9a2.206,2.206,0,0,1,1.578.56,1.982,1.982,0,0,1,.6,1.491h-1.31a.955.955,0,0,0-.252-.662.843.843,0,0,0-.64-.255.844.844,0,0,0-.739.356,2.062,2.062,0,0,0-.25,1.156V-7.1a2.088,2.088,0,0,0,.247,1.16.855.855,0,0,0,.751.353Zm5.41,1.13A2.575,2.575,0,0,1-.008-5.165,2.516,2.516,0,0,1-.733-7.051v-.136A3.169,3.169,0,0,1-.427-8.6a2.241,2.241,0,0,1,.865-.96A2.429,2.429,0,0,1,1.715-9.9a2.177,2.177,0,0,1,1.694.679A2.758,2.758,0,0,1,4.027-7.3v.572H.688A1.3,1.3,0,0,0,1.1-5.9a1.238,1.238,0,0,0,.865.31A1.512,1.512,0,0,0,3.23-6.177l.688.771a2.1,2.1,0,0,1-.853.7,2.8,2.8,0,0,1-1.2.249Zm-.16-4.3a.877.877,0,0,0-.676.281,1.453,1.453,0,0,0-.332.8h1.95v-.111A1.036,1.036,0,0,0,2.4-8.5a.9.9,0,0,0-.689-.263ZM7.663-6a.451.451,0,0,0-.255-.4,2.891,2.891,0,0,0-.817-.264Q4.72-7.057,4.72-8.254A1.441,1.441,0,0,1,5.3-9.428,2.337,2.337,0,0,1,6.815-9.9a2.515,2.515,0,0,1,1.6.47,1.482,1.482,0,0,1,.6,1.222H7.61a.678.678,0,0,0-.194-.5.821.821,0,0,0-.606-.2.839.839,0,0,0-.548.16.5.5,0,0,0-.194.407.432.432,0,0,0,.221.376,2.269,2.269,0,0,0,.744.247,6.078,6.078,0,0,1,.882.235,1.45,1.45,0,0,1,1.11,1.411A1.368,1.368,0,0,1,8.41-4.9a2.656,2.656,0,0,1-1.59.444,2.774,2.774,0,0,1-1.171-.235,1.964,1.964,0,0,1-.8-.645,1.5,1.5,0,0,1-.291-.885H5.884a.731.731,0,0,0,.276.572,1.1,1.1,0,0,0,.688.2A1.014,1.014,0,0,0,7.457-5.6.475.475,0,0,0,7.663-6Zm5.1,0a.451.451,0,0,0-.255-.4,2.891,2.891,0,0,0-.817-.264Q9.82-7.057,9.82-8.254a1.441,1.441,0,0,1,.58-1.174A2.337,2.337,0,0,1,11.92-9.9a2.515,2.515,0,0,1,1.6.47,1.482,1.482,0,0,1,.6,1.222h-1.4a.678.678,0,0,0-.194-.5.821.821,0,0,0-.606-.2.839.839,0,0,0-.548.16.5.5,0,0,0-.194.407.432.432,0,0,0,.221.376,2.269,2.269,0,0,0,.744.247,6.078,6.078,0,0,1,.882.235,1.45,1.45,0,0,1,1.11,1.411,1.368,1.368,0,0,1-.62,1.172,2.656,2.656,0,0,1-1.59.444,2.774,2.774,0,0,1-1.171-.235,1.964,1.964,0,0,1-.8-.645,1.5,1.5,0,0,1-.291-.885h1.328a.731.731,0,0,0,.276.572,1.1,1.1,0,0,0,.688.2,1.014,1.014,0,0,0,.608-.153.475.475,0,0,0,.205-.4Z" transform="translate(57.523 72.189)" fill="#272727"/></g><g transform="translate(888.258 263.469)"><path d="M-19.636-7.435h-2.792v1.891h3.277v1.168h-4.731v-7.058h4.722v1.178h-3.267v1.682h2.792Zm5.323,1.6h-2.55l-.485,1.454h-1.546l2.627-7.058h1.348l2.642,7.058h-1.546ZM-16.47-7.013H-14.7l-.887-2.642Zm6.307.145v2.487h-1.454v-7.058h2.753a3.186,3.186,0,0,1,1.4.291,2.143,2.143,0,0,1,.928.827A2.3,2.3,0,0,1-6.213-9.1a2.027,2.027,0,0,1-.71,1.636,2.958,2.958,0,0,1-1.966.6Zm0-1.178h1.3a1.277,1.277,0,0,0,.88-.271.987.987,0,0,0,.3-.776,1.164,1.164,0,0,0-.3-.839,1.141,1.141,0,0,0-.843-.33h-1.333Zm10.747.3A4.261,4.261,0,0,1,.215-5.918,2.775,2.775,0,0,1-.839-4.706a2.917,2.917,0,0,1-1.573.427A2.936,2.936,0,0,1-3.978-4.7,2.8,2.8,0,0,1-5.044-5.9a4.139,4.139,0,0,1-.383-1.8v-.349A4.238,4.238,0,0,1-5.052-9.89,2.8,2.8,0,0,1-3.99-11.107a2.92,2.92,0,0,1,1.568-.424,2.92,2.92,0,0,1,1.568.424A2.8,2.8,0,0,1,.208-9.89,4.226,4.226,0,0,1,.583-8.06ZM-.89-8.065a2.97,2.97,0,0,0-.4-1.687,1.3,1.3,0,0,0-1.134-.577,1.3,1.3,0,0,0-1.13.57,2.936,2.936,0,0,0-.4,1.67v.344a3.007,3.007,0,0,0,.4,1.677,1.292,1.292,0,0,0,1.144.6,1.28,1.28,0,0,0,1.125-.574,2.99,2.99,0,0,0,.4-1.675ZM3.1-5.544H6.183v1.168H1.64v-7.058H3.1Z" transform="translate(36.123 11.531)" fill="#272727"/><path d="M-2.536-4.323h-1.4v-5.4L-5.609-9.2v-1.139l2.923-1.047h.15Zm2.424-.688a.705.705,0,0,1,.225-.543.8.8,0,0,1,.565-.208.806.806,0,0,1,.57.208.7.7,0,0,1,.225.543.7.7,0,0,1-.223.536.81.81,0,0,1-.572.206.8.8,0,0,1-.567-.206.7.7,0,0,1-.223-.536Z" transform="translate(5.609 11.478)" fill="#272727"/></g><g transform="translate(1139.713 263.469)"><path d="M-24.575-6.96h-1.159v2.584h-1.454v-7.058h2.623a2.965,2.965,0,0,1,1.929.557A1.924,1.924,0,0,1-21.957-9.3a2.172,2.172,0,0,1-.313,1.2,2.132,2.132,0,0,1-.948.768l1.527,2.884v.068h-1.561Zm-1.159-1.178h1.173a1.2,1.2,0,0,0,.848-.279,1,1,0,0,0,.3-.768A1.066,1.066,0,0,0-23.7-9.97a1.179,1.179,0,0,0-.87-.286h-1.168Zm8.866,2.307h-2.55L-19.9-4.376h-1.546l2.627-7.058h1.348l2.642,7.058h-1.546Zm-2.157-1.178h1.765l-.887-2.642Zm4.853,2.632v-7.058H-12a3.3,3.3,0,0,1,1.665.419A2.924,2.924,0,0,1-9.188-9.822a3.678,3.678,0,0,1,.412,1.757v.325a3.689,3.689,0,0,1-.4,1.75A2.9,2.9,0,0,1-10.322-4.8a3.323,3.323,0,0,1-1.663.427Zm1.454-5.88v4.712h.7a1.579,1.579,0,0,0,1.3-.557,2.519,2.519,0,0,0,.468-1.6v-.37A2.559,2.559,0,0,0-10.7-9.7a1.574,1.574,0,0,0-1.3-.555Zm6.544,5.88H-7.627v-7.058h1.454Zm6.69-7.058v4.649A2.38,2.38,0,0,1-.208-4.953a2.794,2.794,0,0,1-1.98.674,2.825,2.825,0,0,1-1.963-.654,2.34,2.34,0,0,1-.742-1.8v-4.7h1.454v4.659a1.345,1.345,0,0,0,.332,1.011,1.275,1.275,0,0,0,.919.318q1.226,0,1.246-1.289v-4.7ZM5.37-6.228a.746.746,0,0,0-.291-.633,3.815,3.815,0,0,0-1.047-.465,7.423,7.423,0,0,1-1.2-.482,1.956,1.956,0,0,1-1.2-1.75,1.7,1.7,0,0,1,.322-1.02,2.1,2.1,0,0,1,.926-.7,3.485,3.485,0,0,1,1.355-.252,3.172,3.172,0,0,1,1.348.274,2.146,2.146,0,0,1,.919.773A2.023,2.023,0,0,1,6.829-9.35H5.374a.952.952,0,0,0-.3-.754,1.255,1.255,0,0,0-.858-.269,1.341,1.341,0,0,0-.829.225.711.711,0,0,0-.3.594.681.681,0,0,0,.347.577,3.916,3.916,0,0,0,1.02.436,4.409,4.409,0,0,1,1.808.926,1.844,1.844,0,0,1,.567,1.377A1.7,1.7,0,0,1,6.135-4.8a3.035,3.035,0,0,1-1.866.521,3.6,3.6,0,0,1-1.483-.3A2.347,2.347,0,0,1,1.766-5.4a2.092,2.092,0,0,1-.351-1.2H2.873q0,1.168,1.4,1.168a1.358,1.358,0,0,0,.81-.211.686.686,0,0,0,.287-.589Z" transform="translate(39.709 11.531)" fill="#272727"/><path d="M-1.389-4.376H-6.227v-.96L-3.944-7.77a5.633,5.633,0,0,0,.7-.9A1.441,1.441,0,0,0-3.019-9.4a1.078,1.078,0,0,0-.238-.739.857.857,0,0,0-.679-.269.925.925,0,0,0-.749.327,1.3,1.3,0,0,0-.274.86H-6.367A2.314,2.314,0,0,1-6.059-10.4a2.17,2.17,0,0,1,.87-.836,2.645,2.645,0,0,1,1.275-.3,2.5,2.5,0,0,1,1.694.524,1.852,1.852,0,0,1,.6,1.479,2.373,2.373,0,0,1-.271,1.066A5.927,5.927,0,0,1-2.819-7.2l-1.6,1.692h3.035ZM-.4-5.064a.7.7,0,0,1,.225-.543A.8.8,0,0,1,.39-5.816a.806.806,0,0,1,.57.208.7.7,0,0,1,.225.543.7.7,0,0,1-.223.536.81.81,0,0,1-.572.206.8.8,0,0,1-.567-.206A.7.7,0,0,1-.4-5.064Z" transform="translate(6.367 11.531)" fill="#272727"/></g><path d="M-4.819-8.526h.747a1.052,1.052,0,0,0,.79-.267A.977.977,0,0,0-3.026-9.5a.864.864,0,0,0-.255-.664.986.986,0,0,0-.7-.238,1.034,1.034,0,0,0-.674.221.7.7,0,0,0-.271.574h-1.4a1.723,1.723,0,0,1,.3-.991,1.987,1.987,0,0,1,.834-.686,2.783,2.783,0,0,1,1.18-.247A2.639,2.639,0,0,1-2.26-11a1.828,1.828,0,0,1,.635,1.476,1.485,1.485,0,0,1-.3.892A1.921,1.921,0,0,1-2.7-8a1.754,1.754,0,0,1,.89.64,1.736,1.736,0,0,1,.293,1.008A1.858,1.858,0,0,1-2.2-4.846a2.758,2.758,0,0,1-1.815.567,2.615,2.615,0,0,1-1.728-.557A1.821,1.821,0,0,1-6.414-6.31h1.4a.812.812,0,0,0,.3.65,1.1,1.1,0,0,0,.734.252,1.1,1.1,0,0,0,.78-.265.912.912,0,0,0,.284-.7q0-1.057-1.163-1.057h-.742Zm4.4,3.461a.7.7,0,0,1,.225-.543.8.8,0,0,1,.565-.208.806.806,0,0,1,.57.208.7.7,0,0,1,.225.543.7.7,0,0,1-.223.536.81.81,0,0,1-.572.206A.8.8,0,0,1-.2-4.529a.7.7,0,0,1-.221-.535Z" transform="translate(778.759 421.439)" fill="#272727"/><g transform="translate(1098.948 280.552)"><path d="M331.169-19.645H316.726" transform="translate(-204.589 35.486)" fill="none" stroke="#272727" stroke-linecap="round" stroke-linejoin="round" stroke-width="1.5"/><g transform="translate(43.149 62.515)"><path d="M321.964-19.645h-5.238" transform="translate(-248.126 19.645)" fill="none" stroke="#272727" stroke-linecap="round" stroke-linejoin="round" stroke-width="1.5"/><path d="M407.6-19.645H379.111" transform="translate(-345.566 19.645)" fill="none" stroke="#272727" stroke-linecap="round" stroke-linejoin="round" stroke-width="1.5"/><path d="M408.336-19.645H379.111" transform="translate(-379.111 19.645)" fill="none" stroke="#272727" stroke-linecap="round" stroke-linejoin="round" stroke-width="1.5"/></g><g transform="translate(8.742 59.235)"><path d="M316.726-19.645h14.737" transform="translate(-313.266 22.923)" fill="none" stroke="#272727" stroke-linecap="round" stroke-linejoin="round" stroke-width="1.5"/><path d="M379.111-19.645h4.718" transform="translate(-357.697 22.923)" fill="none" stroke="#272727" stroke-linecap="round" stroke-linejoin="round" stroke-width="1.5"/><path d="M308.746-23.255a.082.082,0,0,0-.025.059.082.082,0,0,0,.025.059l3.2,3.2a.082.082,0,0,0,.09.018.083.083,0,0,0,.051-.076v-6.392a.083.083,0,0,0-.051-.076.082.082,0,0,0-.09.018Z" transform="translate(-308.722 26.475)" fill="none" stroke="#272727" stroke-linecap="round" stroke-linejoin="round" stroke-width="1.5"/></g><g transform="translate(0 18.96)"><path d="M308.746-23.255a.082.082,0,0,0-.025.059.082.082,0,0,0,.025.059l3.2,3.2a.082.082,0,0,0,.09.018.083.083,0,0,0,.051-.076v-6.392a.083.083,0,0,0-.051-.076.082.082,0,0,0-.09.018Z" transform="translate(-308.722 26.475)" fill="none" stroke="#c2171c" stroke-linecap="round" stroke-linejoin="round" stroke-width="1.5"/><path d="M316.726-19.645h16.147" transform="translate(-313.194 22.923)" fill="none" stroke="#c2171c" stroke-linecap="round" stroke-linejoin="round" stroke-width="1.5" stroke-dasharray="4"/><path d="M379.111-19.645H440.72" transform="translate(-351.109 22.923)" fill="none" stroke="#c2171c" stroke-linecap="round" stroke-linejoin="round" stroke-width="1.5" stroke-dasharray="4"/></g><path d="M379.111-19.645h4.718" transform="translate(-336.199 35.484)" fill="none" stroke="#272727" stroke-linecap="round" stroke-linejoin="round" stroke-width="1.5"/><g transform="translate(93.083)"><path d="M526.057,338.248a130.25,130.25,0,0,1-1.7-21.833c0-20.551,4.013-37.236,8.956-37.236,1.931,0,3.72,2.546,5.183,6.873" transform="translate(-524.354 -279.178)" fill="none" stroke="#dfdfdf" stroke-linecap="round" stroke-linejoin="round" stroke-miterlimit="1.5" stroke-width="1.5" fill-rule="evenodd"/></g><g transform="translate(23.306)"><path d="M526.057,338.248a130.25,130.25,0,0,1-1.7-21.833c0-20.551,4.013-37.236,8.956-37.236,1.931,0,3.72,2.546,5.183,6.873" transform="translate(-524.354 -279.178)" fill="none" stroke="#dfdfdf" stroke-linecap="round" stroke-linejoin="round" stroke-miterlimit="1.5" stroke-width="1.5" fill-rule="evenodd"/></g><path d="M433.96-19.645H379.111" transform="translate(-328.687 35.486)" fill="none" stroke="#272727" stroke-linecap="round" stroke-linejoin="round" stroke-width="1.5"/><g transform="translate(96.909 15.181)"><path d="M527.117,240.055a129.77,129.77,0,0,1,1.741,22.055c0,20.551-4.013,37.236-8.956,37.236-1.908,0-3.677-2.486-5.131-6.72" transform="translate(-514.771 -240.055)" fill="none" stroke="#dfdfdf" stroke-linecap="round" stroke-linejoin="round" stroke-miterlimit="1.5" stroke-width="1.5" fill-rule="evenodd"/></g><g transform="translate(13.709 15.839)"><path d="M316.726-19.645h22.7" transform="translate(-316.726 19.645)" fill="none" stroke="#272727" stroke-linecap="round" stroke-linejoin="round" stroke-width="1.5"/></g><g transform="translate(27.131 15.181)"><path d="M527.117,240.055a129.77,129.77,0,0,1,1.741,22.055c0,20.551-4.013,37.236-8.956,37.236-1.908,0-3.677-2.486-5.131-6.72" transform="translate(-514.771 -240.055)" fill="none" stroke="#dfdfdf" stroke-linecap="round" stroke-linejoin="round" stroke-miterlimit="1.5" stroke-width="1.5" fill-rule="evenodd"/></g><path d="M-8.558-6.454H-11V-4.8h2.867v1.022h-4.14V-9.953h4.131v1.031H-11V-7.45h2.443ZM-3.9-5.05H-6.132l-.424,1.273H-7.909l2.3-6.176H-4.43l2.312,6.176H-3.472ZM-5.788-6.08h1.544L-5.02-8.392Zm5.518.127v2.176H-1.542V-9.953H.867A2.787,2.787,0,0,1,2.091-9.7a1.875,1.875,0,0,1,.812.723A2.017,2.017,0,0,1,3.187-7.91a1.773,1.773,0,0,1-.621,1.432,2.588,2.588,0,0,1-1.72.524Zm0-1.031H.867a1.118,1.118,0,0,0,.77-.238A.864.864,0,0,0,1.9-7.9a1.019,1.019,0,0,0-.267-.734A1,1,0,0,0,.9-8.922H-.27Z" transform="translate(72.395 46.122)" fill="#272727"/><path d="M379.111-19.645h18.322" transform="translate(-281.85 41.883)" fill="none" stroke="#c2171c" stroke-linecap="round" stroke-linejoin="round" stroke-width="1.5" stroke-dasharray="4"/><path d="M336.927-19.645h-20.2" transform="translate(-204.904 74.69)" fill="none" stroke="#c2171c" stroke-linecap="round" stroke-linejoin="round" stroke-width="1.5" stroke-dasharray="4"/><path d="M444.257-19.645H379.111" transform="translate(-336.954 74.69)" fill="none" stroke="#c2171c" stroke-linecap="round" stroke-linejoin="round" stroke-width="1.5" stroke-dasharray="4"/><path d="M393.563-19.645H379.111" transform="translate(-359.389 74.69)" fill="none" stroke="#c2171c" stroke-linecap="round" stroke-linejoin="round" stroke-width="1.5" stroke-dasharray="4"/><path d="M312.058-23.255a.082.082,0,0,1,.025.059.082.082,0,0,1-.025.059l-3.2,3.2a.082.082,0,0,1-.09.018.083.083,0,0,1-.051-.076v-6.392a.083.083,0,0,1,.051-.076.082.082,0,0,1,.09.018Z" transform="translate(-176.501 78.241)" fill="none" stroke="#c2171c" stroke-linecap="round" stroke-linejoin="round" stroke-width="1.5"/><path d="M312.058-23.255a.082.082,0,0,1,.025.059.082.082,0,0,1-.025.059l-3.2,3.2a.082.082,0,0,1-.09.018.083.083,0,0,1-.051-.076v-6.392a.083.083,0,0,1,.051-.076.082.082,0,0,1,.09.018Z" transform="translate(-181.964 39.038)" fill="none" stroke="#272727" stroke-linecap="round" stroke-linejoin="round" stroke-width="1.5"/></g></g></g></svg>