<?xml version="1.0" encoding="utf-8"?>
<!-- Generator: Adobe Illustrator 28.1.0, SVG Export Plug-In . SVG Version: 6.00 Build 0)  -->
<svg version="1.1" id="Layer_1" xmlns="http://www.w3.org/2000/svg" xmlns:xlink="http://www.w3.org/1999/xlink" x="0px" y="0px"
	 viewBox="0 0 1272.5 668" style="enable-background:new 0 0 1272.5 668;" xml:space="preserve">
<style type="text/css">
	.st0{fill:none;stroke:#A9001E;stroke-miterlimit:10;}
	.st1{fill:none;stroke:#121A56;stroke-miterlimit:10;}
	.st2{fill:#121A56;}
	.st3{fill:none;stroke:#E54E0F;stroke-width:3;stroke-miterlimit:10;}
	.st4{fill:none;stroke:#E54E0F;stroke-width:3;stroke-miterlimit:10;stroke-dasharray:4.9994,4.9994;}
	.st5{fill:#E54E0F;}
	.st6{fill:#A9001E;}
	.st7{fill:#161E2C;}
	.st8{fill:none;stroke:#A0A3B9;stroke-width:6;stroke-miterlimit:10;}
	.st9{fill:#A0A3B9;}
	.st10{fill:#020332;}
	.st11{fill:#FFFFFF;}
</style>
<path class="st0" d="M481.4,285.1c-14,0-25.3-28.9-25.3-64.4s11.3-64.4,25.3-64.4"/>
<path class="st0" d="M345.1,285.1c-14,0-25.3-28.9-25.3-64.4s11.3-64.4,25.3-64.4"/>
<path class="st1" d="M859.9,283c-14,0-25.3-28.9-25.3-64.4s11.3-64.4,25.3-64.4"/>
<path class="st1" d="M723.6,283c-14,0-25.3-28.9-25.3-64.4s11.3-64.4,25.3-64.4"/>
<ellipse transform="matrix(0.7071 -0.7071 0.7071 0.7071 159.6878 806.5203)" class="st2" cx="1053.4" cy="210.5" rx="86.3" ry="86.3"/>
<g>
	<path d="M614.9,308.2l-4.6-15.8h2.2l3.6,13.2l3.8-13.2h2.4l3.8,13.2l3.6-13.2h2.1l-4.6,15.8H625l-3.9-13.3l-3.8,13.3H614.9z"/>
	<path d="M634.6,294.6c-0.4,0-0.7-0.1-0.9-0.3s-0.3-0.5-0.3-0.8s0.1-0.6,0.3-0.8s0.5-0.3,0.9-0.3s0.7,0.1,0.9,0.3s0.3,0.5,0.3,0.8
		s-0.1,0.6-0.3,0.8S634.9,294.6,634.6,294.6z M633.6,308.2v-11.4h2v11.4H633.6z"/>
	<path d="M638.6,303.2v-1.7h5.8v1.7H638.6z"/>
	<path d="M647.7,308.2v-15.8h9.8v1.8h-7.7v5h7v1.7h-7v7.3H647.7z"/>
	<path d="M660.7,294.6c-0.4,0-0.7-0.1-0.9-0.3s-0.3-0.5-0.3-0.8s0.1-0.6,0.3-0.8s0.5-0.3,0.9-0.3s0.7,0.1,0.9,0.3s0.3,0.5,0.3,0.8
		s-0.1,0.6-0.3,0.8S661.1,294.6,660.7,294.6z M659.7,308.2v-11.4h2v11.4H659.7z"/>
	<path d="M668.5,308.2l5.9-15.8h2.2l5.8,15.8h-2.2l-1.5-4.4h-6.5l-1.6,4.4H668.5z M672.8,302h5.4l-2.7-7.5L672.8,302z"/>
	<path d="M684.6,308.2v-15.8h5.7c1,0,1.9,0.2,2.6,0.6s1.4,0.9,1.9,1.6s0.7,1.6,0.7,2.7c0,1-0.2,1.9-0.7,2.6s-1.1,1.2-1.9,1.6
		s-1.7,0.5-2.6,0.5h-3.6v6.2L684.6,308.2L684.6,308.2z M686.8,300.2h3.4c1,0,1.7-0.2,2.3-0.7s0.9-1.2,0.9-2.2c0-1.1-0.3-1.8-0.9-2.4
		s-1.4-0.8-2.3-0.8h-3.4V300.2z"/>
</g>
<g>
	<path d="M689.7,388.7l5.9-15.8h2.2l5.8,15.8h-2.2l-1.5-4.4h-6.5l-1.6,4.4H689.7z M694,382.5h5.4l-2.7-7.5L694,382.5z"/>
	<path d="M710.3,388.9c-1,0-1.9-0.2-2.7-0.7s-1.4-1.1-1.9-2s-0.7-2-0.7-3.3s0.2-2.4,0.7-3.3s1.1-1.5,1.9-2s1.7-0.7,2.8-0.7
		c0.9,0,1.7,0.1,2.4,0.4s1.3,0.7,1.7,1.3s0.6,1.3,0.7,2.2h-1.9c0-0.7-0.3-1.3-0.8-1.7s-1.1-0.6-2-0.6c-1.1,0-1.9,0.4-2.5,1.1
		s-0.8,1.8-0.8,3.2c0,0.9,0.1,1.7,0.4,2.3s0.6,1.1,1.1,1.5s1.1,0.5,1.8,0.5c0.8,0,1.5-0.2,2-0.7s0.8-1.1,0.8-1.9h1.9
		c0,0.9-0.2,1.7-0.7,2.3s-1,1.1-1.7,1.4S711.2,388.9,710.3,388.9z"/>
	<path d="M722.9,388.9c-1,0-1.9-0.2-2.7-0.7s-1.4-1.1-1.9-2s-0.7-2-0.7-3.3s0.2-2.4,0.7-3.3s1.1-1.5,1.9-2s1.7-0.7,2.8-0.7
		c0.9,0,1.7,0.1,2.4,0.4s1.3,0.7,1.7,1.3s0.6,1.3,0.7,2.2h-1.9c0-0.7-0.3-1.3-0.8-1.7s-1.1-0.6-2-0.6c-1.1,0-1.9,0.4-2.5,1.1
		s-0.8,1.8-0.8,3.2c0,0.9,0.1,1.7,0.4,2.3s0.6,1.1,1.1,1.5s1.1,0.5,1.8,0.5c0.8,0,1.5-0.2,2-0.7s0.8-1.1,0.8-1.9h1.9
		c0,0.9-0.2,1.7-0.7,2.3s-1,1.1-1.7,1.4S723.8,388.9,722.9,388.9z"/>
	<path d="M735.6,388.9c-1.2,0-2.3-0.3-3.1-0.8s-1.4-1.2-1.8-2.1s-0.6-1.9-0.6-3c0-1.2,0.2-2.2,0.6-3.1s0.9-1.6,1.7-2.1
		s1.7-0.8,2.9-0.8c1.6,0,2.8,0.5,3.7,1.4s1.3,2.3,1.3,4c0,0.1,0,0.3,0,0.4s0,0.3,0,0.3h-8.1c0,0.7,0.1,1.4,0.4,2s0.6,1.1,1.1,1.5
		s1.2,0.6,2,0.6c0.9,0,1.6-0.2,2.1-0.6s0.8-1,0.8-1.8h1.9c0,0.8-0.2,1.5-0.6,2.1s-0.9,1-1.6,1.3S736.5,388.9,735.6,388.9z
		 M732.2,381.9h6.2c0-1.1-0.3-1.9-0.8-2.4s-1.3-0.8-2.2-0.8c-1,0-1.7,0.3-2.2,0.8S732.2,380.8,732.2,381.9z"/>
	<path d="M747.4,388.9c-0.6,0-1.2-0.1-1.8-0.2s-1.1-0.4-1.5-0.7s-0.8-0.7-1-1.2s-0.4-1.1-0.4-1.8h1.9c0,0.9,0.3,1.5,0.8,1.9
		s1.2,0.5,2.1,0.5c0.7,0,1.4-0.1,1.8-0.4s0.7-0.8,0.7-1.4s-0.2-1-0.7-1.3s-1.2-0.5-2.3-0.8c-0.9-0.2-1.6-0.5-2.2-0.7
		s-1.1-0.6-1.4-1.1s-0.5-1-0.5-1.6c0-0.5,0.1-1,0.3-1.3s0.5-0.7,0.9-1s0.8-0.5,1.4-0.6s1.1-0.2,1.7-0.2c0.6,0,1.2,0.1,1.7,0.2
		s1,0.4,1.4,0.7s0.7,0.7,1,1.1s0.4,1,0.4,1.7h-1.9c0-0.8-0.2-1.4-0.7-1.7s-1.1-0.5-1.8-0.5s-1.3,0.1-1.7,0.4s-0.7,0.6-0.7,1.2
		c0,0.3,0.1,0.6,0.3,0.8s0.5,0.4,1,0.6s1.1,0.3,1.9,0.5c0.9,0.2,1.6,0.4,2.1,0.7s1,0.6,1.3,1.1s0.4,1,0.4,1.7c0,0.6-0.1,1.1-0.3,1.5
		s-0.6,0.8-1,1.1s-0.9,0.5-1.4,0.6S748,388.9,747.4,388.9z"/>
	<path d="M758.7,388.9c-0.6,0-1.2-0.1-1.8-0.2s-1.1-0.4-1.5-0.7s-0.8-0.7-1-1.2s-0.4-1.1-0.4-1.8h1.9c0,0.9,0.3,1.5,0.8,1.9
		s1.2,0.5,2.1,0.5c0.7,0,1.4-0.1,1.8-0.4s0.7-0.8,0.7-1.4s-0.2-1-0.7-1.3s-1.2-0.5-2.3-0.8c-0.9-0.2-1.6-0.5-2.2-0.7
		s-1.1-0.6-1.4-1.1s-0.5-1-0.5-1.6c0-0.5,0.1-1,0.3-1.3s0.5-0.7,0.9-1s0.8-0.5,1.4-0.6s1.1-0.2,1.7-0.2c0.6,0,1.2,0.1,1.7,0.2
		s1,0.4,1.4,0.7s0.7,0.7,1,1.1s0.4,1,0.4,1.7h-2c0-0.8-0.2-1.4-0.7-1.7s-1.1-0.5-1.8-0.5s-1.3,0.1-1.7,0.4s-0.7,0.6-0.7,1.2
		c0,0.3,0.1,0.6,0.3,0.8s0.5,0.4,1,0.6s1.1,0.3,1.9,0.5c0.9,0.2,1.6,0.4,2.1,0.7s1,0.6,1.3,1.1s0.4,1,0.4,1.7c0,0.6-0.1,1.1-0.3,1.5
		s-0.6,0.8-1,1.1s-0.9,0.5-1.4,0.6S759.3,388.9,758.7,388.9z"/>
	<path d="M778.1,388.9c-1.6,0-3-0.3-4.1-1s-2-1.6-2.5-2.8s-0.9-2.6-0.9-4.2s0.3-3,0.9-4.2s1.4-2.2,2.5-2.8s2.5-1,4.1-1
		c0.8,0,1.6,0.1,2.3,0.3s1.4,0.5,2,0.9s1.1,0.9,1.5,1.6s0.6,1.4,0.7,2.2h-2.1c-0.1-0.6-0.3-1.2-0.7-1.7s-0.9-0.9-1.5-1.2
		s-1.4-0.5-2.3-0.5c-1.3,0-2.3,0.3-3.1,0.9s-1.4,1.3-1.7,2.3s-0.6,2-0.6,3.2s0.2,2.2,0.6,3.2s1,1.7,1.8,2.3s1.8,0.8,3.1,0.8
		c1.1,0,2-0.2,2.7-0.6s1.2-0.9,1.6-1.7s0.5-1.5,0.5-2.4h-4.6v-1.7h6.7v1.2c0,1.4-0.3,2.6-0.8,3.6s-1.3,1.9-2.3,2.5
		S779.6,388.9,778.1,388.9z"/>
	<path d="M791,388.9c-0.7,0-1.3-0.1-1.8-0.4s-1-0.6-1.3-1.1s-0.5-1.1-0.5-1.8c0-1,0.3-1.8,1-2.3s1.5-0.9,2.7-1.1s2.5-0.3,4.1-0.3
		v-0.8c0-1-0.2-1.6-0.7-2s-1.1-0.5-1.8-0.5c-0.8,0-1.5,0.2-2,0.6s-0.8,1-0.8,1.9H788c0-0.9,0.2-1.7,0.6-2.3s1-1,1.7-1.3
		s1.5-0.4,2.4-0.4c0.6,0,1.1,0.1,1.7,0.2s1,0.3,1.4,0.6s0.8,0.7,1,1.2s0.4,1.2,0.4,2v7.6h-1.8l-0.1-1.7c-0.5,0.6-1.1,1.1-1.8,1.4
		S791.9,388.9,791,388.9z M791.5,387.4c0.8,0,1.5-0.2,2.1-0.6s1.1-0.8,1.6-1.4v-2.3c-2.1,0-3.6,0.2-4.5,0.6s-1.4,1-1.4,1.8
		c0,0.6,0.2,1,0.5,1.4S790.8,387.4,791.5,387.4z"/>
	<path d="M804.4,388.7c-0.9,0-1.6-0.1-2.1-0.4s-0.8-0.7-1-1.3s-0.3-1.2-0.3-2v-6.1h-1.9v-1.6h1.9v-2.6h1.9v2.6h2.8v1.6H803v6
		c0,0.7,0.1,1.3,0.3,1.6s0.6,0.6,1.3,0.6h1.2v1.6L804.4,388.7L804.4,388.7z"/>
	<path d="M813,388.9c-1.2,0-2.3-0.3-3.1-0.8s-1.4-1.2-1.8-2.1s-0.6-1.9-0.6-3c0-1.2,0.2-2.2,0.6-3.1s0.9-1.6,1.7-2.1
		s1.7-0.8,2.9-0.8c1.6,0,2.8,0.5,3.7,1.4s1.3,2.3,1.3,4c0,0.1,0,0.3,0,0.4s0,0.3,0,0.3h-8.1c0,0.7,0.1,1.4,0.4,2s0.6,1.1,1.1,1.5
		s1.2,0.6,2,0.6c0.9,0,1.6-0.2,2.1-0.6s0.8-1,0.8-1.8h1.9c0,0.8-0.2,1.5-0.6,2.1s-0.9,1-1.6,1.3S814,388.9,813,388.9z M809.6,381.9
		h6.2c0-1.1-0.3-1.9-0.8-2.4s-1.3-0.8-2.2-0.8c-1,0-1.7,0.3-2.2,0.8S809.7,380.8,809.6,381.9z"/>
	<path d="M822.8,388.7l-3.6-11.4h2l2.7,9.2l2.7-9.2h2.2l2.8,9.2l2.7-9.2h1.9l-3.6,11.4h-2.1l-2.8-9.3l-2.8,9.3H822.8z"/>
	<path d="M841,388.9c-0.7,0-1.3-0.1-1.8-0.4s-1-0.6-1.3-1.1s-0.5-1.1-0.5-1.8c0-1,0.3-1.8,1-2.3s1.5-0.9,2.7-1.1s2.5-0.3,4.1-0.3
		v-0.8c0-1-0.2-1.6-0.7-2s-1.1-0.5-1.8-0.5c-0.8,0-1.5,0.2-2,0.6s-0.8,1-0.8,1.9H838c0-0.9,0.2-1.7,0.6-2.3s1-1,1.7-1.3
		s1.5-0.4,2.4-0.4c0.6,0,1.1,0.1,1.7,0.2s1,0.3,1.4,0.6s0.8,0.7,1,1.2s0.4,1.2,0.4,2v7.6h-1.8l-0.1-1.7c-0.5,0.6-1.1,1.1-1.8,1.4
		S842,388.9,841,388.9z M841.5,387.4c0.8,0,1.5-0.2,2.1-0.6s1.1-0.8,1.6-1.4v-2.3c-2.1,0-3.6,0.2-4.5,0.6s-1.4,1-1.4,1.8
		c0,0.6,0.2,1,0.5,1.4S840.8,387.4,841.5,387.4z"/>
	<path d="M850.2,392.9v-1.6h1c0.4,0,0.8-0.1,1.1-0.4s0.6-0.6,0.8-1.2l0.4-1l-4.6-11.4h2.1l3.5,9.3l3.3-9.3h2l-4.3,11.4l-0.5,1.4
		c-0.3,0.7-0.5,1.2-0.8,1.6s-0.7,0.7-1.1,0.9s-1,0.3-1.7,0.3L850.2,392.9L850.2,392.9z"/>
</g>
<g>
	<g>
		<line class="st3" x1="279" y1="239.6" x2="281.5" y2="239.6"/>
		<line class="st4" x1="286.5" y1="239.6" x2="943.9" y2="239.6"/>
		<line class="st3" x1="946.4" y1="239.6" x2="948.9" y2="239.6"/>
		<g>
			<polygon class="st5" points="287.4,250.7 282.7,239.6 287.4,228.5 261.1,239.6 			"/>
		</g>
	</g>
</g>
<g>
	<g>
		<line class="st3" x1="261.1" y1="194.2" x2="263.6" y2="194.2"/>
		<line class="st4" x1="268.6" y1="194.2" x2="926" y2="194.2"/>
		<line class="st3" x1="928.5" y1="194.2" x2="931" y2="194.2"/>
		<g>
			<polygon class="st5" points="922.6,205.4 927.3,194.2 922.6,183.1 948.9,194.2 			"/>
		</g>
	</g>
</g>
<g>
	<path class="st5" d="M391.4,226.8v-18.4h11.7v2.1h-9.3v5.9h8.5v2h-8.5v6.4h9.3v2.1h-11.7V226.8z"/>
	<path class="st5" d="M404.7,226.8l6.9-18.4h2.6l6.8,18.4h-2.5l-1.8-5.2H409l-1.8,5.2H404.7z M409.7,219.6h6.3l-3.1-8.7L409.7,219.6
		z"/>
	<path class="st5" d="M423.5,226.8v-18.4h6.6c1.1,0,2.2,0.2,3.1,0.6c0.9,0.4,1.6,1.1,2.2,1.9c0.5,0.8,0.8,1.9,0.8,3.1
		c0,1.2-0.3,2.2-0.8,3s-1.2,1.4-2.2,1.8c-0.9,0.4-1.9,0.6-3.1,0.6h-4.2v7.3L423.5,226.8L423.5,226.8z M425.9,217.5h4
		c1.1,0,2-0.3,2.7-0.9c0.7-0.6,1-1.4,1-2.6c0-1.2-0.3-2.2-1-2.7c-0.7-0.6-1.6-0.9-2.7-0.9h-4V217.5z"/>
</g>
<g>
	<path class="st5" d="M773,226.8v-18.4h11.7v2.1h-9.3v5.9h8.5v2h-8.5v6.4h9.3v2.1H773V226.8z"/>
	<path class="st5" d="M786.3,226.8l6.9-18.4h2.6l6.8,18.4H800l-1.8-5.2h-7.6l-1.8,5.2H786.3z M791.3,219.6h6.3l-3.1-8.7L791.3,219.6
		z"/>
	<path class="st5" d="M805.1,226.8v-18.4h6.6c1.1,0,2.2,0.2,3.1,0.6c0.9,0.4,1.6,1.1,2.2,1.9c0.5,0.8,0.8,1.9,0.8,3.1
		c0,1.2-0.3,2.2-0.8,3s-1.2,1.4-2.2,1.8c-0.9,0.4-1.9,0.6-3.1,0.6h-4.2v7.3L805.1,226.8L805.1,226.8z M807.5,217.5h4
		c1.1,0,2-0.3,2.7-0.9c0.7-0.6,1-1.4,1-2.6c0-1.2-0.3-2.2-1-2.7c-0.7-0.6-1.6-0.9-2.7-0.9h-4V217.5z"/>
</g>
<path class="st1" d="M723.6,154.1c14,0,25.3,28.9,25.3,64.4S737.5,283,723.6,283"/>
<path class="st1" d="M859.9,154.1c14,0,25.3,28.9,25.3,64.4S873.9,283,859.9,283"/>
<path class="st0" d="M345.1,156.2c14,0,25.3,28.9,25.3,64.4S359.1,285,345.1,285"/>
<path class="st0" d="M481.4,156.2c14,0,25.3,28.9,25.3,64.4S495.4,285,481.4,285"/>
<line class="st1" x1="723.6" y1="154.1" x2="858.3" y2="154.3"/>
<line class="st1" x1="723.6" y1="283" x2="859.9" y2="283"/>
<g>
	<path class="st2" d="M670.5,129.7V114h10.1v1.8h-8v5h7.3v1.7h-7.3v5.5h8v1.8h-10.1V129.7z"/>
	<path class="st2" d="M683.7,129.7v-11.4h1.9l0.1,1.8c0.4-0.5,0.9-0.9,1.5-1.3s1.5-0.6,2.5-0.6c1.2,0,2.2,0.4,2.7,1.1
		s0.9,1.8,0.9,3.1v7.4h-2v-7.1c0-0.6-0.1-1-0.2-1.5s-0.3-0.8-0.6-1s-0.7-0.4-1.3-0.4c-0.9,0-1.6,0.2-2.1,0.6s-1,0.8-1.4,1.3v8.1
		L683.7,129.7L683.7,129.7z"/>
	<path class="st2" d="M701.6,129.9c-1,0-1.9-0.2-2.7-0.7s-1.4-1.1-1.9-2s-0.7-2-0.7-3.3s0.2-2.4,0.7-3.3s1.1-1.5,1.9-2
		s1.7-0.7,2.8-0.7c0.9,0,1.7,0.1,2.4,0.4s1.3,0.7,1.7,1.3s0.6,1.3,0.7,2.2h-1.9c0-0.7-0.3-1.3-0.8-1.7s-1.1-0.6-2-0.6
		c-1.1,0-1.9,0.4-2.5,1.1s-0.8,1.8-0.8,3.2c0,0.9,0.1,1.7,0.4,2.3s0.6,1.1,1.1,1.5s1.1,0.5,1.8,0.5c0.8,0,1.5-0.2,2-0.7
		s0.8-1.1,0.8-1.9h1.9c0,0.9-0.2,1.7-0.7,2.3c-0.5,0.6-1,1.1-1.7,1.4S702.5,129.9,701.6,129.9z"/>
	<path class="st2" d="M712.3,129.9c-0.7,0-1.3-0.1-1.8-0.4s-1-0.6-1.3-1.1s-0.5-1.1-0.5-1.8c0-1,0.3-1.8,1-2.3s1.5-0.9,2.7-1.1
		s2.5-0.3,4.1-0.3v-0.8c0-1-0.2-1.6-0.7-2s-1.1-0.5-1.8-0.5c-0.8,0-1.5,0.2-2,0.6s-0.8,1-0.8,1.9h-1.9c0-0.9,0.2-1.7,0.6-2.3
		s1-1,1.7-1.3s1.5-0.4,2.4-0.4c0.6,0,1.1,0.1,1.7,0.2s1,0.3,1.4,0.6s0.8,0.7,1,1.2s0.4,1.2,0.4,2v7.6h-1.8l-0.1-1.7
		c-0.5,0.6-1.1,1.1-1.8,1.4S713.2,129.9,712.3,129.9z M712.8,128.4c0.8,0,1.5-0.2,2.1-0.6s1.1-0.8,1.6-1.4v-2.3
		c-2.1,0-3.6,0.2-4.5,0.6s-1.4,1-1.4,1.8c0,0.6,0.2,1,0.5,1.4C711.4,128.3,712.1,128.4,712.8,128.4z"/>
	<path class="st2" d="M722.1,133.9v-15.6h1.9l0.1,1.9c0.4-0.6,0.9-1.1,1.6-1.5s1.4-0.6,2.2-0.6c0.9,0,1.7,0.2,2.4,0.7s1.2,1.1,1.6,2
		s0.6,2,0.6,3.3s-0.2,2.4-0.6,3.3s-1,1.5-1.7,2s-1.6,0.7-2.5,0.7c-0.8,0-1.5-0.2-2.1-0.5s-1.1-0.8-1.5-1.3v5.8h-2V133.9z
		 M727.3,128.3c1,0,1.8-0.4,2.3-1.1s0.8-1.8,0.8-3.2c0-1.4-0.2-2.5-0.7-3.2s-1.2-1.1-2.2-1.1c-0.8,0-1.5,0.2-2.1,0.7s-1,1-1.3,1.6
		v4.4c0.3,0.6,0.7,1.1,1.3,1.4C726,128.1,726.5,128.3,727.3,128.3z"/>
	<path class="st2" d="M739.5,129.9c-0.6,0-1.2-0.1-1.8-0.2s-1.1-0.4-1.5-0.7s-0.8-0.7-1-1.2s-0.4-1.1-0.4-1.8h1.9
		c0,0.9,0.3,1.5,0.8,1.9s1.2,0.5,2.1,0.5c0.7,0,1.4-0.1,1.8-0.4s0.7-0.8,0.7-1.4s-0.2-1-0.7-1.3s-1.2-0.5-2.3-0.8
		c-0.9-0.2-1.6-0.5-2.2-0.7s-1.1-0.6-1.4-1.1s-0.5-1-0.5-1.6c0-0.5,0.1-1,0.3-1.3s0.5-0.7,0.9-1s0.8-0.5,1.4-0.6s1.1-0.2,1.7-0.2
		c0.6,0,1.2,0.1,1.7,0.2s1,0.4,1.4,0.7s0.7,0.7,1,1.1s0.4,1,0.4,1.7h-1.9c0-0.8-0.2-1.4-0.7-1.7s-1.1-0.5-1.8-0.5s-1.3,0.1-1.7,0.4
		s-0.7,0.6-0.7,1.2c0,0.3,0.1,0.6,0.3,0.8s0.5,0.4,1,0.6s1.1,0.3,1.9,0.5c0.9,0.2,1.6,0.4,2.1,0.7s1,0.6,1.3,1.1s0.4,1,0.4,1.7
		c0,0.6-0.1,1.1-0.3,1.5s-0.6,0.8-1,1.1s-0.9,0.5-1.4,0.6S740.1,129.9,739.5,129.9z"/>
	<path class="st2" d="M750.6,129.9c-1.3,0-2.3-0.4-2.9-1.1s-0.9-1.7-0.9-3v-7.5h2v7.2c0,0.5,0.1,1,0.2,1.4s0.3,0.7,0.7,0.9
		s0.8,0.3,1.4,0.3c0.9,0,1.6-0.2,2.2-0.5s1-0.8,1.4-1.2v-8.1h2v11.4h-1.9l-0.1-1.8c-0.4,0.5-0.9,0.9-1.6,1.3
		S751.6,129.9,750.6,129.9z"/>
	<path class="st2" d="M763.7,129.7c-0.9,0-1.6-0.1-2.1-0.4s-0.8-0.7-1-1.3s-0.3-1.2-0.3-2v-12h1.9v12c0,0.7,0.1,1.3,0.3,1.6
		s0.6,0.6,1.3,0.6h0.5v1.6h-0.6V129.7z"/>
	<path class="st2" d="M769.7,129.9c-0.7,0-1.3-0.1-1.8-0.4s-1-0.6-1.3-1.1s-0.5-1.1-0.5-1.8c0-1,0.3-1.8,1-2.3s1.5-0.9,2.7-1.1
		s2.5-0.3,4.1-0.3v-0.8c0-1-0.2-1.6-0.7-2s-1.1-0.5-1.8-0.5c-0.8,0-1.5,0.2-2,0.6s-0.8,1-0.8,1.9h-1.9c0-0.9,0.2-1.7,0.6-2.3
		s1-1,1.7-1.3s1.5-0.4,2.4-0.4c0.6,0,1.1,0.1,1.7,0.2s1,0.3,1.4,0.6s0.8,0.7,1,1.2s0.4,1.2,0.4,2v7.6H774l-0.1-1.7
		c-0.5,0.6-1.1,1.1-1.8,1.4S770.6,129.9,769.7,129.9z M770.2,128.4c0.8,0,1.5-0.2,2.1-0.6s1.1-0.8,1.6-1.4v-2.3
		c-2.1,0-3.6,0.2-4.5,0.6s-1.4,1-1.4,1.8c0,0.6,0.2,1,0.5,1.4C768.8,128.3,769.5,128.4,770.2,128.4z"/>
	<path class="st2" d="M783.1,129.7c-0.9,0-1.6-0.1-2.1-0.4s-0.8-0.7-1-1.3s-0.3-1.2-0.3-2v-6.1h-1.9v-1.6h1.9v-2.6h1.9v2.6h2.8v1.6
		h-2.8v6c0,0.7,0.1,1.3,0.3,1.6s0.6,0.6,1.3,0.6h1.2v1.6L783.1,129.7L783.1,129.7z"/>
	<path class="st2" d="M791.6,129.9c-1.2,0-2.3-0.3-3.1-0.8s-1.4-1.2-1.8-2.1s-0.6-1.9-0.6-3c0-1.2,0.2-2.2,0.6-3.1s0.9-1.6,1.7-2.1
		s1.7-0.8,2.9-0.8c1.6,0,2.8,0.5,3.7,1.4s1.3,2.3,1.3,4c0,0.1,0,0.3,0,0.4s0,0.3,0,0.3h-8.1c0,0.7,0.1,1.4,0.4,2s0.6,1.1,1.1,1.5
		s1.2,0.6,2,0.6c0.9,0,1.6-0.2,2.1-0.6s0.8-1,0.8-1.8h1.9c0,0.8-0.2,1.5-0.6,2.1c-0.4,0.6-0.9,1-1.6,1.3S792.6,129.9,791.6,129.9z
		 M788.2,122.9h6.2c0-1.1-0.3-1.9-0.8-2.4s-1.3-0.8-2.2-0.8c-1,0-1.7,0.3-2.2,0.8S788.3,121.8,788.2,122.9z"/>
	<path class="st2" d="M803.4,129.9c-0.9,0-1.7-0.2-2.4-0.7s-1.2-1.1-1.6-2s-0.6-2-0.6-3.3s0.2-2.4,0.6-3.2s1-1.5,1.7-2
		s1.6-0.7,2.5-0.7c0.8,0,1.5,0.2,2.1,0.5s1.1,0.8,1.5,1.4V114h2v15.8h-1.9l-0.1-1.7c-0.4,0.6-0.9,1-1.6,1.4S804.3,129.9,803.4,129.9
		z M803.8,128.3c0.8,0,1.5-0.2,2.1-0.6s1-0.9,1.3-1.4v-4.4c-0.3-0.6-0.7-1.2-1.3-1.6s-1.2-0.6-2-0.6c-1,0-1.8,0.4-2.3,1.1
		s-0.8,1.8-0.8,3.2c0,1.4,0.2,2.5,0.7,3.2S802.9,128.3,803.8,128.3z"/>
	<path class="st2" d="M818.8,116.2c-0.4,0-0.7-0.1-0.9-0.3s-0.3-0.5-0.3-0.8s0.1-0.6,0.3-0.8s0.5-0.3,0.9-0.3s0.7,0.1,0.9,0.3
		s0.3,0.5,0.3,0.8s-0.1,0.6-0.3,0.8S819.2,116.2,818.8,116.2z M817.9,129.7v-11.4h2v11.4H817.9z"/>
	<path class="st2" d="M823.6,129.7v-11.4h1.9l0.1,1.8c0.4-0.5,0.9-0.9,1.5-1.3s1.5-0.6,2.5-0.6c1.2,0,2.2,0.4,2.7,1.1
		s0.9,1.8,0.9,3.1v7.4h-2v-7.1c0-0.6-0.1-1-0.2-1.5s-0.3-0.8-0.6-1s-0.7-0.4-1.3-0.4c-0.9,0-1.6,0.2-2.1,0.6s-1,0.8-1.4,1.3v8.1
		L823.6,129.7L823.6,129.7z"/>
	<path class="st2" d="M841.9,129.7V114h6c0.9,0,1.7,0.1,2.5,0.4s1.3,0.7,1.8,1.4s0.7,1.4,0.7,2.4s-0.3,1.9-0.8,2.6s-1.4,1.2-2.5,1.4
		c0.6,0.1,1.1,0.3,1.5,0.6s0.7,0.7,1,1.2s0.5,1.1,0.7,1.9l1,3.9h-2.2l-0.9-3.6c-0.2-0.6-0.3-1.2-0.6-1.7s-0.5-0.8-0.9-1
		s-0.8-0.4-1.4-0.4H844v6.7h-2.1V129.7z M844,121.3h3.6c0.6,0,1.1-0.1,1.6-0.3s0.8-0.5,1.1-0.9s0.4-0.9,0.4-1.5
		c0-0.9-0.3-1.6-0.8-2.1s-1.3-0.7-2.3-0.7H844V121.3z"/>
	<path class="st2" d="M854.4,129.7l5.9-15.8h2.2l5.8,15.8h-2.2l-1.5-4.4h-6.5l-1.6,4.4H854.4z M858.7,123.5h5.4l-2.7-7.5
		L858.7,123.5z"/>
	<path class="st2" d="M870.5,129.7V114h5.3c1.6,0,3.1,0.3,4.2,0.9s2.1,1.5,2.7,2.7s0.9,2.6,0.9,4.3c0,1.7-0.3,3.1-0.9,4.3
		s-1.5,2.1-2.7,2.7s-2.6,0.9-4.2,0.9h-5.3V129.7z M872.6,128h2.7c1.4,0,2.5-0.2,3.4-0.7s1.6-1.1,2-2s0.7-2.1,0.7-3.4
		c0-1.4-0.2-2.5-0.7-3.4s-1.1-1.6-2-2s-2-0.7-3.4-0.7h-2.7V128z"/>
	<path class="st2" d="M886.9,129.7V114h2.1v15.8h-2.1V129.7z"/>
	<path class="st2" d="M899.3,129.9c-1.5,0-2.7-0.3-3.6-0.8s-1.6-1.2-2-2.2s-0.6-2-0.6-3.1V114h2.1v9.7c0,1.6,0.4,2.8,1.1,3.5
		s1.7,1,3.1,1c1.4,0,2.4-0.3,3.1-1s1.1-1.9,1.1-3.5V114h2.1v9.9c0,1.2-0.2,2.2-0.6,3.1s-1.1,1.6-2,2.2S900.8,129.9,899.3,129.9z"/>
	<path class="st2" d="M914.3,129.9c-1.1,0-2.1-0.2-3-0.5s-1.6-0.9-2.2-1.6s-0.8-1.7-0.8-2.9h2.1c0,0.8,0.2,1.5,0.5,2s0.8,0.8,1.4,1
		s1.3,0.3,2,0.3s1.3-0.1,1.8-0.3s1-0.5,1.3-0.9s0.5-0.9,0.5-1.6c0-0.5-0.1-1-0.4-1.3s-0.7-0.7-1.3-0.9s-1.4-0.5-2.4-0.8
		c-1.2-0.3-2.2-0.7-2.9-1s-1.3-0.8-1.7-1.4s-0.6-1.3-0.6-2.1c0-0.9,0.2-1.7,0.6-2.3s1-1.1,1.8-1.4s1.7-0.5,2.8-0.5
		c1,0,1.9,0.2,2.8,0.5s1.5,0.8,2,1.5s0.8,1.5,0.8,2.4h-2.1c0-0.9-0.3-1.6-1-2s-1.5-0.7-2.5-0.7s-1.8,0.2-2.3,0.6s-0.8,1-0.8,1.8
		c0,0.5,0.1,0.8,0.4,1.2s0.7,0.6,1.2,0.8s1.4,0.5,2.5,0.8c1.2,0.3,2.2,0.7,3,1.1s1.3,0.9,1.7,1.4s0.5,1.4,0.5,2.3
		c0,1-0.3,1.9-0.8,2.5c-0.5,0.6-1.2,1.2-2.1,1.5S915.4,129.9,914.3,129.9z"/>
</g>
<g>
	<path class="st6" d="M379.8,129.7V114h10.1v1.8h-8v5h7.3v1.7h-7.3v5.5h8v1.8h-10.1V129.7z"/>
	<path class="st6" d="M391.2,129.7l5.9-15.8h2.2l5.8,15.8H403l-1.5-4.4H395l-1.6,4.4H391.2z M395.5,123.5h5.4l-2.7-7.5L395.5,123.5z
		"/>
	<path class="st6" d="M407.3,129.7V114h5.7c1,0,1.9,0.2,2.6,0.6s1.4,0.9,1.9,1.6s0.7,1.6,0.7,2.7c0,1-0.2,1.9-0.7,2.6
		s-1.1,1.2-1.9,1.6s-1.7,0.5-2.6,0.5h-3.6v6.2L407.3,129.7L407.3,129.7z M409.4,121.8h3.4c1,0,1.7-0.2,2.3-0.7s0.9-1.2,0.9-2.2
		c0-1.1-0.3-1.8-0.9-2.4s-1.4-0.8-2.3-0.8h-3.4V121.8z"/>
	<path class="st6" d="M427.7,129.9c-1.6,0-3-0.3-4.1-1s-2-1.6-2.5-2.8s-0.8-2.6-0.8-4.2s0.3-3,0.8-4.2s1.4-2.2,2.5-2.9s2.5-1,4.1-1
		s3,0.3,4.1,1s1.9,1.6,2.5,2.9s0.8,2.6,0.8,4.2s-0.3,3-0.8,4.2s-1.4,2.2-2.5,2.8S429.3,129.9,427.7,129.9z M427.7,128.2
		c1.3,0,2.3-0.3,3.1-0.9s1.4-1.3,1.7-2.3s0.5-2,0.5-3.2s-0.2-2.3-0.5-3.2s-0.9-1.7-1.7-2.3s-1.8-0.9-3.1-0.9s-2.3,0.3-3.1,0.9
		s-1.4,1.3-1.7,2.3s-0.5,2-0.5,3.2s0.2,2.2,0.5,3.2s0.9,1.7,1.7,2.3S426.4,128.2,427.7,128.2z"/>
	<path class="st6" d="M438.5,129.7V114h2.1v14h7.4v1.8h-9.5V129.7z"/>
</g>
<line class="st0" x1="345.1" y1="156.2" x2="481.4" y2="156.2"/>
<line class="st0" x1="345.1" y1="285.1" x2="481.4" y2="285.1"/>
<g>
	<path class="st7" d="M598.2,629.3c4.4,0,10.8-3.8,16.5-15.3c2.6-5.3,4.8-11.6,6.4-18.8h-45.8c1.6,7.2,3.8,13.6,6.4,18.8
		C587.4,625.4,593.7,629.3,598.2,629.3z M573.7,586.6h48.8c0.7-5.4,1.1-11.1,1.1-17s-0.4-11.7-1.1-17h-48.8
		c-0.7,5.4-1.1,11.1-1.1,17C572.6,575.5,573,581.3,573.7,586.6z M575.3,544h45.8c-1.6-7.2-3.8-13.6-6.4-18.8
		c-5.7-11.4-12-15.3-16.5-15.3s-10.8,3.8-16.5,15.3C579,530.5,576.8,536.9,575.3,544z M631.2,552.6c0.7,5.5,1.1,11.2,1.1,17
		s-0.4,11.6-1.1,17h24.2c1.6-5.4,2.5-11.1,2.5-17s-0.9-11.6-2.5-17H631.2z M652.1,544c-6.9-14.5-19.5-25.8-34.9-31
		c5.6,7.5,10,18.3,12.6,31H652.1L652.1,544z M566.6,544c2.6-12.7,7-23.4,12.6-31c-15.4,5.2-28,16.5-34.9,31H566.6L566.6,544z
		 M541,552.6c-1.6,5.4-2.5,11.1-2.5,17s0.9,11.6,2.5,17h24.1c-0.7-5.5-1.1-11.2-1.1-17s0.4-11.6,1.1-17H541L541,552.6z M617.2,626.1
		c15.4-5.2,28-16.5,34.9-31h-22.3C627.2,607.8,622.8,618.6,617.2,626.1z M579.1,626.1c-5.6-7.5-10-18.3-12.6-31h-22.3
		C551.2,609.7,563.7,621,579.1,626.1z M598.2,637.8c-37.6,0-68.2-30.5-68.2-68.2c0-37.6,30.5-68.2,68.2-68.2s68.2,30.5,68.2,68.2
		C666.3,607.3,635.8,637.8,598.2,637.8z"/>
</g>
<g>
	<g>
		<path class="st8" d="M176.8,311.5c76.1,132.1,421.3,12.3,421.3-34.3v85.5"/>
		<g>
			<polygon class="st9" points="167.9,328.4 179.4,316 196.3,315.7 167.1,288.4 			"/>
		</g>
	</g>
</g>
<g>
	<g>
		<line class="st8" x1="598.2" y1="402.8" x2="598.2" y2="462.9"/>
		<g>
			<polygon class="st9" points="582.6,451.1 598.2,457.7 613.7,451.1 598.2,487.9 			"/>
		</g>
	</g>
</g>
<circle class="st9" cx="382.6" cy="364.4" r="39.5"/>
<g>
	<g transform="translate(-77 -545)">
		<path class="st7" d="M626.4,911.9c-4.4,0-8.2,3.5-8.2,7.9v15.9c0,4.4,3.5,7.9,8.2,7.9H724c4.4,0,8.2-3.5,8.2-7.9v-15.9
			c0-4.4-3.5-7.9-8.2-7.9H626.4z M610,919.8c0-8.8,7.3-15.9,16.3-15.9H724c9.1,0,16.3,7.3,16.3,15.9v15.9c0,8.8-7.3,15.9-16.3,15.9
			h-97.6c-9.1,0-16.3-7.3-16.3-15.9v-15.9H610z M687.3,927.8c0-3.3,2.6-6,6.2-6c3.3,0,6.2,2.6,6.2,6s-2.6,6-6.2,6
			C690.2,933.7,687.3,931.1,687.3,927.8z M707.6,927.8c0-3.3,2.6-6,6.2-6c3.3,0,6.2,2.6,6.2,6s-2.6,6-6.2,6
			C710.5,933.7,707.6,931.1,707.6,927.8z"/>
	</g>
</g>
<g>
	<path class="st10" d="M612.7,169.8c14.3,0,27.4,5.1,37.5,13.7c1.5,1.3,3.8,1.1,5.1-0.4s1.1-3.8-0.4-5.1
		c-11.4-9.6-26.1-15.4-42.2-15.4s-30.8,5.8-42.2,15.4c-1.5,1.3-1.7,3.6-0.4,5.1s3.6,1.7,5.1,0.4
		C585.3,174.9,598.4,169.8,612.7,169.8z M616.4,217.1c0-2-1.6-3.6-3.6-3.6s-3.6,1.6-3.6,3.6v18.2h-61.9c-8,0-14.6,6.5-14.6,14.6
		v14.6c0,8,6.5,14.6,14.6,14.6h101.9c8,0,14.6-6.5,14.6-14.6v-14.6c0-8-6.5-14.6-14.6-14.6h-32.7v-18.2H616.4z M547.2,242.5h101.9
		c4,0,7.3,3.3,7.3,7.3v14.6c0,4-3.3,7.3-7.3,7.3H547.2c-4,0-7.3-3.3-7.3-7.3v-14.6C539.9,245.8,543.2,242.5,547.2,242.5z
		 M556.3,262.5c3,0,5.5-2.4,5.5-5.5c0-3-2.4-5.5-5.5-5.5c-3,0-5.5,2.4-5.5,5.5C550.9,260.1,553.3,262.5,556.3,262.5z M580,257.1
		c0-3-2.4-5.5-5.5-5.5s-5.5,2.4-5.5,5.5c0,3,2.4,5.5,5.5,5.5S580,260.1,580,257.1z M589.6,199.9c6.3-5.2,14.3-8.3,23.1-8.3
		s16.9,3.1,23.1,8.3c1.5,1.3,3.8,1.1,5.1-0.5s1.1-3.8-0.5-5.1c-7.5-6.3-17.2-10-27.8-10s-20.2,3.8-27.8,10c-1.5,1.3-1.8,3.6-0.5,5.1
		S588,201.2,589.6,199.9L589.6,199.9z"/>
</g>
<g>
	<path d="M65.5,123.1c-1.7,0-3.2-0.3-4.6-0.8s-2.4-1.3-3.2-2.4s-1.2-2.5-1.2-4.2h4c0,1,0.3,1.9,0.7,2.5c0.5,0.6,1.1,1,1.8,1.3
		c0.8,0.3,1.6,0.4,2.6,0.4c0.9,0,1.7-0.1,2.4-0.4c0.7-0.2,1.3-0.6,1.7-1.1c0.4-0.5,0.6-1.1,0.6-1.9c0-0.7-0.2-1.3-0.5-1.7
		c-0.3-0.5-0.9-0.9-1.7-1.2c-0.8-0.3-1.9-0.7-3.3-1.1c-1.7-0.4-3-0.9-4.2-1.5c-1.1-0.5-2-1.2-2.6-2.1c-0.6-0.8-0.9-1.9-0.9-3.2
		c0-1.4,0.3-2.6,1-3.5s1.6-1.6,2.8-2.1s2.6-0.7,4.2-0.7c1.5,0,2.9,0.2,4.2,0.7s2.3,1.2,3.1,2.2c0.8,1,1.1,2.2,1.1,3.7h-4
		c0-1.1-0.4-2-1.3-2.6s-1.9-0.9-3.1-0.9c-1.2,0-2.2,0.2-3,0.7c-0.7,0.5-1.1,1.2-1.1,2.2c0,0.6,0.2,1,0.5,1.4s0.9,0.8,1.7,1.1
		c0.8,0.3,2,0.7,3.5,1.1c1.8,0.5,3.2,1,4.3,1.6c1.1,0.6,1.9,1.3,2.5,2.1c0.5,0.9,0.8,2,0.8,3.4c0,1.5-0.4,2.8-1.2,3.8
		c-0.8,1-1.8,1.7-3.1,2.2C68.6,122.9,67.1,123.1,65.5,123.1z"/>
	<path d="M83.4,123c-1.8,0-3.2-0.5-4.1-1.6S78,118.9,78,117v-10.9h3.7v10.4c0,0.7,0.1,1.2,0.3,1.8c0.2,0.5,0.5,0.9,0.9,1.2
		c0.4,0.3,1,0.4,1.8,0.4c1.1,0,2-0.2,2.7-0.7s1.4-1,1.9-1.6v-11.5H93v16.7h-3.6l-0.1-2.5c-0.5,0.7-1.3,1.3-2.3,1.9
		C86.1,122.7,84.9,123,83.4,123z"/>
	<path d="M98.1,128.9v-22.8h3.5l0.2,2.6c0.6-0.9,1.4-1.6,2.3-2.1s2-0.8,3.2-0.8c1.3,0,2.5,0.3,3.5,1c1,0.6,1.8,1.6,2.3,2.9
		c0.6,1.3,0.8,2.9,0.8,4.8s-0.3,3.5-0.9,4.8s-1.4,2.2-2.5,2.9c-1.1,0.6-2.3,1-3.6,1c-1.1,0-2.1-0.2-3-0.7s-1.6-1.1-2.1-1.9v8.4h-3.7
		V128.9z M106.1,120.2c1.3,0,2.3-0.5,3-1.5s1-2.4,1-4.2c0-1.9-0.3-3.3-1-4.3c-0.6-1-1.5-1.5-2.7-1.5c-1.1,0-2.1,0.3-2.9,0.9
		s-1.4,1.3-1.8,2.1v5.7c0.4,0.8,1,1.4,1.7,2C104.2,119.9,105.1,120.2,106.1,120.2z"/>
	<path d="M118.2,128.9v-22.8h3.5l0.2,2.6c0.6-0.9,1.4-1.6,2.3-2.1s2-0.8,3.2-0.8c1.3,0,2.5,0.3,3.5,1c1,0.6,1.8,1.6,2.3,2.9
		c0.6,1.3,0.8,2.9,0.8,4.8s-0.3,3.5-0.9,4.8c-0.6,1.3-1.4,2.2-2.5,2.9c-1.1,0.6-2.3,1-3.6,1c-1.1,0-2.1-0.2-3-0.7s-1.6-1.1-2.1-1.9
		v8.4h-3.7V128.9z M126.2,120.2c1.3,0,2.3-0.5,3-1.5s1-2.4,1-4.2c0-1.9-0.3-3.3-1-4.3c-0.6-1-1.5-1.5-2.7-1.5
		c-1.1,0-2.1,0.3-2.9,0.9s-1.4,1.3-1.8,2.1v5.7c0.4,0.8,1,1.4,1.7,2C124.3,119.9,125.2,120.2,126.2,120.2z"/>
	<path d="M143.8,122.8c-1.5,0-2.7-0.2-3.5-0.6s-1.4-1-1.7-1.9c-0.3-0.8-0.5-1.9-0.5-3.1V99.8h3.7V117c0,1,0.1,1.7,0.4,2.2
		c0.3,0.5,0.8,0.7,1.8,0.7h0.9v2.9C144.9,122.8,143.8,122.8,143.8,122.8z"/>
	<path d="M149.9,103.5c-0.7,0-1.2-0.2-1.6-0.5c-0.4-0.4-0.6-0.8-0.6-1.4s0.2-1,0.6-1.4c0.4-0.4,0.9-0.5,1.6-0.5
		c0.7,0,1.2,0.2,1.6,0.5c0.4,0.4,0.6,0.8,0.6,1.4s-0.2,1-0.6,1.4C151.1,103.3,150.6,103.5,149.9,103.5z M148,122.8v-16.7h3.7v16.7
		H148z"/>
	<path d="M164,123c-1.5,0-2.9-0.3-4.1-0.9c-1.2-0.6-2.2-1.5-2.9-2.8s-1.1-2.9-1.1-4.8s0.3-3.6,1-4.8c0.7-1.3,1.6-2.2,2.8-2.9
		c1.2-0.6,2.6-0.9,4.2-0.9c1.3,0,2.6,0.2,3.6,0.7c1.1,0.4,1.9,1.1,2.6,2s1,2,1,3.4h-3.6c-0.1-1-0.4-1.7-1-2.3
		c-0.6-0.6-1.5-0.8-2.6-0.8c-1.5,0-2.6,0.5-3.2,1.5c-0.7,1-1,2.4-1,4.2c0,1.2,0.2,2.2,0.5,3s0.8,1.5,1.4,1.9
		c0.6,0.4,1.4,0.7,2.4,0.7c1.1,0,2-0.3,2.7-0.9s1-1.4,1.1-2.6h3.6c0,1.4-0.4,2.6-1,3.5c-0.7,0.9-1.5,1.7-2.6,2.1S165.4,123,164,123z
		"/>
	<path d="M179.9,123.1c-1,0-1.8-0.2-2.6-0.5c-0.8-0.4-1.5-0.9-1.9-1.6c-0.5-0.7-0.7-1.6-0.7-2.7c0-1.5,0.5-2.7,1.4-3.4
		c0.9-0.8,2.2-1.3,3.9-1.6c1.7-0.3,3.6-0.4,5.9-0.5v-1c0-1.2-0.3-2.1-0.9-2.6c-0.6-0.5-1.4-0.7-2.3-0.7c-1,0-1.9,0.3-2.6,0.8
		c-0.7,0.5-1,1.3-1,2.4h-3.5c0-1.4,0.3-2.5,0.9-3.3c0.6-0.8,1.4-1.4,2.5-1.8s2.3-0.6,3.7-0.6c0.9,0,1.8,0.1,2.7,0.3
		c0.8,0.2,1.6,0.5,2.2,0.9c0.6,0.4,1.1,1,1.5,1.8c0.4,0.7,0.5,1.7,0.5,2.9v11.2h-3.5l-0.1-2.3c-0.7,0.8-1.6,1.5-2.6,1.9
		C182.3,122.8,181.1,123.1,179.9,123.1z M181,120.5c1,0,1.9-0.2,2.7-0.7s1.5-1.1,2-1.8v-3c-2.7,0-4.6,0.3-5.8,0.8
		c-1.1,0.5-1.7,1.3-1.7,2.4c0,0.8,0.2,1.4,0.7,1.8C179.4,120.2,180.1,120.5,181,120.5z"/>
	<path d="M194.4,122.8v-16.7h3.6l0.1,2.5c0.5-0.7,1.3-1.3,2.2-1.9s2.1-0.9,3.6-0.9c1.8,0,3.1,0.5,4,1.6s1.3,2.6,1.3,4.5v10.8h-3.7
		v-10.3c0-0.7-0.1-1.3-0.3-1.9c-0.2-0.5-0.5-1-0.9-1.3s-1-0.5-1.7-0.5c-1.1,0-2,0.2-2.7,0.7s-1.4,1.1-1.9,1.7v11.5h-3.6V122.8z"/>
	<path d="M220.5,122.8c-1.5,0-2.7-0.2-3.5-0.6s-1.4-1-1.7-1.9s-0.5-1.9-0.5-3.1V109H212v-2.9h2.8v-3.9h3.7v3.9h3.9v2.9h-3.9v7.9
		c0,1,0.1,1.7,0.4,2.2c0.3,0.5,0.9,0.7,1.8,0.7h1.7v2.9h-1.9V122.8z"/>
</g>
<g>
	<path d="M691.8,577.7v-15.8h2.1v15.8H691.8z"/>
	<path d="M697.8,577.7v-11.4h1.9l0.1,1.8c0.4-0.5,0.9-0.9,1.5-1.3s1.5-0.6,2.5-0.6c1.2,0,2.2,0.4,2.7,1.1s0.9,1.8,0.9,3.1v7.4h-2
		v-7.1c0-0.6-0.1-1-0.2-1.5s-0.3-0.8-0.6-1s-0.7-0.4-1.3-0.4c-0.9,0-1.6,0.2-2.1,0.6s-1,0.8-1.4,1.3v8.1L697.8,577.7L697.8,577.7z"
		/>
	<path d="M714.9,577.7c-0.9,0-1.6-0.1-2.1-0.4s-0.8-0.7-1-1.3s-0.3-1.2-0.3-2v-6.1h-1.9v-1.6h1.9v-2.6h1.9v2.6h2.8v1.6h-2.8v6
		c0,0.7,0.1,1.3,0.3,1.6s0.6,0.6,1.3,0.6h1.2v1.6L714.9,577.7L714.9,577.7z"/>
	<path d="M723.4,577.9c-1.2,0-2.3-0.3-3.1-0.8s-1.4-1.2-1.8-2.1s-0.6-1.9-0.6-3c0-1.2,0.2-2.2,0.6-3.1s0.9-1.6,1.7-2.1
		s1.7-0.8,2.9-0.8c1.6,0,2.8,0.5,3.7,1.4s1.3,2.3,1.3,4c0,0.1,0,0.3,0,0.4s0,0.3,0,0.3H720c0,0.7,0.1,1.4,0.4,2s0.6,1.1,1.1,1.5
		s1.2,0.6,2,0.6c0.9,0,1.6-0.2,2.1-0.6s0.8-1,0.8-1.8h1.9c0,0.8-0.2,1.5-0.6,2.1s-0.9,1-1.6,1.3S724.4,577.9,723.4,577.9z
		 M720,570.9h6.2c0-1.1-0.3-1.9-0.8-2.4s-1.3-0.8-2.2-0.8c-1,0-1.7,0.3-2.2,0.8S720.1,569.8,720,570.9z"/>
	<path d="M731.3,577.7v-11.4h1.8l0.1,1.9c0.3-0.6,0.8-1.1,1.3-1.5s1.3-0.6,2.2-0.6h0.2v1.8h-0.3c-0.6,0-1.1,0.1-1.5,0.2
		s-0.8,0.4-1.1,0.6s-0.6,0.6-0.9,0.9v8L731.3,577.7L731.3,577.7z"/>
	<path d="M739.4,577.7v-11.4h1.9l0.1,1.8c0.4-0.5,0.9-0.9,1.5-1.3s1.5-0.6,2.5-0.6c1.2,0,2.2,0.4,2.7,1.1s0.9,1.8,0.9,3.1v7.4h-2
		v-7.1c0-0.6-0.1-1-0.2-1.5s-0.3-0.8-0.6-1s-0.7-0.4-1.3-0.4c-0.9,0-1.6,0.2-2.1,0.6s-1,0.8-1.4,1.3v8.1L739.4,577.7L739.4,577.7z"
		/>
	<path d="M757.3,577.9c-1.2,0-2.3-0.3-3.1-0.8s-1.4-1.2-1.8-2.1s-0.6-1.9-0.6-3c0-1.2,0.2-2.2,0.6-3.1s0.9-1.6,1.7-2.1
		s1.7-0.8,2.9-0.8c1.6,0,2.8,0.5,3.7,1.4s1.3,2.3,1.3,4c0,0.1,0,0.3,0,0.4s0,0.3,0,0.3h-8.1c0,0.7,0.1,1.4,0.4,2s0.6,1.1,1.1,1.5
		s1.2,0.6,2,0.6c0.9,0,1.6-0.2,2.1-0.6s0.8-1,0.8-1.8h1.9c0,0.8-0.2,1.5-0.6,2.1s-0.9,1-1.6,1.3S758.3,577.9,757.3,577.9z
		 M753.9,570.9h6.2c0-1.1-0.3-1.9-0.8-2.4s-1.3-0.8-2.2-0.8c-1,0-1.7,0.3-2.2,0.8S754,569.8,753.9,570.9z"/>
	<path d="M769.1,577.7c-0.9,0-1.6-0.1-2.1-0.4s-0.8-0.7-1-1.3s-0.3-1.2-0.3-2v-6.1h-1.9v-1.6h1.9v-2.6h1.9v2.6h2.8v1.6h-2.8v6
		c0,0.7,0.1,1.3,0.3,1.6s0.6,0.6,1.3,0.6h1.2v1.6L769.1,577.7L769.1,577.7z"/>
</g>
<g>
	<path class="st11" d="M383.8,341.7c-0.4-0.2-0.8-0.3-1.2-0.3s-0.8,0.1-1.2,0.3l-16.9,7.2c-2,0.8-3.5,2.8-3.4,5.1
		c0,8.9,3.7,25.3,19.2,32.7c1.5,0.7,3.2,0.7,4.7,0c15.5-7.4,19.2-23.7,19.2-32.7c0-2.4-1.5-4.3-3.4-5.1L383.8,341.7z M392.8,360.3
		l-11.5,11.5c-0.8,0.8-2.2,0.8-3,0l-5.8-5.8c-0.8-0.8-0.8-2.2,0-3s2.2-0.8,3,0l4.2,4.2l10-10c0.8-0.8,2.2-0.8,3,0
		C393.6,358.1,393.6,359.4,392.8,360.3L392.8,360.3z"/>
</g>
<g>
	<path class="st9" d="M264.1,452.4v-23h14.7v2.6h-11.6v7.3h10.7v2.5h-10.7v8h11.6v2.6H264.1z"/>
	<path class="st9" d="M283.3,452.4v-16.6h2.7l0.1,2.6c0.5-0.7,1.2-1.3,2.2-1.9s2.2-0.9,3.7-0.9c1.8,0,3.2,0.5,4,1.6s1.2,2.6,1.2,4.5
		v10.7h-2.9v-10.3c0-0.8-0.1-1.5-0.3-2.2c-0.2-0.6-0.5-1.1-0.9-1.5s-1.1-0.5-1.9-0.5c-1.2,0-2.3,0.3-3.1,0.8c-0.8,0.6-1.5,1.2-2,1.9
		v11.8H283.3z"/>
	<path class="st9" d="M309.4,452.7c-1.5,0-2.8-0.3-4-0.9s-2.1-1.6-2.7-2.9s-1-2.9-1-4.8s0.3-3.5,1-4.8c0.6-1.3,1.5-2.2,2.7-2.9
		c1.2-0.6,2.5-1,4-1c1.3,0,2.4,0.2,3.5,0.6c1,0.4,1.9,1.1,2.5,1.9s0.9,1.9,1,3.2h-2.8c-0.1-1.1-0.5-1.9-1.2-2.5s-1.7-0.9-2.9-0.9
		c-1.6,0-2.8,0.6-3.6,1.7c-0.8,1.1-1.2,2.7-1.2,4.7c0,1.3,0.2,2.5,0.5,3.4c0.4,0.9,0.9,1.6,1.6,2.1s1.6,0.7,2.7,0.7
		c1.2,0,2.2-0.3,3-0.9s1.2-1.6,1.2-2.8h2.8c0,1.3-0.4,2.5-1,3.4s-1.5,1.6-2.5,2C311.8,452.5,310.7,452.7,309.4,452.7z"/>
	<path class="st9" d="M321,452.4v-16.6h2.7l0.1,2.8c0.5-0.9,1.1-1.6,1.9-2.2s1.9-0.9,3.2-0.9h0.3v2.6h-0.4c-0.8,0-1.6,0.1-2.2,0.3
		c-0.6,0.2-1.2,0.5-1.6,0.9c-0.5,0.4-0.9,0.8-1.2,1.3v11.7H321V452.4z"/>
	<path class="st9" d="M332.2,458.6v-2.4h1.4c0.7,0,1.2-0.2,1.6-0.5s0.8-0.9,1.2-1.7l0.7-1.5l-6.6-16.6h3l5.1,13.6l4.8-13.6h2.9
		l-6.3,16.6l-0.8,2c-0.4,1-0.8,1.8-1.2,2.4c-0.4,0.6-1,1-1.6,1.3s-1.5,0.4-2.4,0.4L332.2,458.6L332.2,458.6z"/>
	<path class="st9" d="M349,458.6v-22.8h2.8l0.1,2.7c0.6-0.9,1.4-1.6,2.3-2.2s2-0.8,3.3-0.8c1.4,0,2.5,0.3,3.5,1
		c1,0.6,1.8,1.6,2.3,2.9s0.8,2.9,0.8,4.8s-0.3,3.5-0.9,4.7c-0.6,1.3-1.4,2.2-2.4,2.9c-1,0.7-2.3,1-3.7,1c-1.2,0-2.2-0.2-3.1-0.7
		s-1.6-1.1-2.1-1.9v8.5H349V458.6z M356.6,450.4c1.5,0,2.7-0.5,3.4-1.6c0.8-1.1,1.2-2.6,1.2-4.7c0-2-0.4-3.6-1.1-4.7
		s-1.8-1.6-3.2-1.6c-1.2,0-2.2,0.3-3.1,1c-0.8,0.6-1.5,1.4-2,2.3v6.4c0.5,0.9,1.1,1.6,1.8,2.1C354.5,450.1,355.4,450.4,356.6,450.4z
		"/>
	<path class="st9" d="M374.2,452.4c-1.3,0-2.4-0.2-3.1-0.6s-1.2-1-1.5-1.8s-0.4-1.8-0.4-2.9v-9h-2.8v-2.3h2.8V432h2.8v3.8h4.1v2.3
		H372v8.8c0,1,0.1,1.8,0.4,2.4s0.9,0.8,1.9,0.8h1.8v2.3L374.2,452.4L374.2,452.4z"/>
	<path class="st9" d="M386.7,452.7c-1.8,0-3.3-0.4-4.5-1.1c-1.2-0.8-2-1.8-2.6-3.1c-0.6-1.3-0.8-2.8-0.8-4.4c0-1.7,0.3-3.2,0.8-4.5
		s1.4-2.3,2.5-3s2.5-1.1,4.2-1.1c2.3,0,4,0.7,5.3,2.1s1.9,3.3,1.9,5.9c0,0.2,0,0.4,0,0.6s0,0.4-0.1,0.5h-11.9c0,1.1,0.2,2.1,0.5,3
		s0.9,1.6,1.6,2.2c0.7,0.5,1.7,0.8,2.9,0.8c1.3,0,2.3-0.3,3-0.9s1.1-1.5,1.1-2.6h2.8c0,1.2-0.3,2.2-0.9,3s-1.4,1.5-2.4,2
		C389.3,452.5,388.1,452.7,386.7,452.7z M381.7,442.5h9.1c0-1.5-0.4-2.7-1.2-3.6c-0.8-0.8-1.9-1.2-3.2-1.2c-1.4,0-2.5,0.4-3.3,1.2
		C382.3,439.7,381.9,440.9,381.7,442.5z"/>
	<path class="st9" d="M403.9,452.7c-1.4,0-2.5-0.3-3.5-1s-1.8-1.6-2.3-2.9s-0.8-2.9-0.8-4.8s0.3-3.5,0.9-4.7
		c0.6-1.3,1.4-2.2,2.4-2.9c1-0.6,2.3-1,3.7-1c1.2,0,2.2,0.3,3.1,0.8s1.6,1.2,2.1,2.1v-9h2.9v23h-2.7l-0.2-2.4
		c-0.6,0.8-1.4,1.5-2.3,2C406.3,452.5,405.2,452.7,403.9,452.7z M404.5,450.4c1.2,0,2.2-0.3,3-0.9s1.5-1.3,2-2.1V441
		c-0.5-0.9-1.1-1.7-1.8-2.3s-1.7-0.9-2.9-0.9c-1.5,0-2.7,0.5-3.4,1.6c-0.8,1.1-1.2,2.6-1.2,4.6c0,2.1,0.4,3.6,1.1,4.7
		C402,449.9,403.1,450.4,404.5,450.4z"/>
	<path class="st9" d="M436.4,452.7c-1,0-1.8-0.2-2.6-0.5c-0.8-0.4-1.4-0.9-1.9-1.6s-0.7-1.6-0.7-2.6c0-1.5,0.5-2.6,1.4-3.4
		s2.3-1.3,4-1.6c1.7-0.3,3.7-0.4,6-0.5v-1.2c0-1.4-0.4-2.4-1.1-2.9s-1.6-0.8-2.7-0.8c-1.2,0-2.1,0.3-2.9,0.9s-1.2,1.5-1.2,2.8h-2.8
		c0-1.4,0.3-2.5,0.9-3.3s1.4-1.5,2.4-1.8c1-0.4,2.2-0.6,3.5-0.6c0.9,0,1.7,0.1,2.5,0.2c0.8,0.2,1.5,0.5,2.1,0.9s1.1,1,1.5,1.8
		s0.5,1.7,0.5,2.9v11.1h-2.7l-0.1-2.5c-0.8,0.9-1.6,1.5-2.7,2.1C438.9,452.5,437.7,452.7,436.4,452.7z M437.1,450.6
		c1.1,0,2.2-0.3,3.1-0.8s1.7-1.2,2.3-2v-3.4c-3,0-5.2,0.3-6.5,0.9c-1.3,0.5-2,1.4-2,2.6c0,0.8,0.3,1.5,0.8,2
		C435.3,450.3,436.1,450.6,437.1,450.6z"/>
	<path class="st9" d="M450.7,452.4v-16.6h2.7l0.1,2.6c0.5-0.7,1.2-1.3,2.2-1.9s2.2-0.9,3.7-0.9c1.8,0,3.2,0.5,4,1.6s1.2,2.6,1.2,4.5
		v10.7h-2.9v-10.3c0-0.8-0.1-1.5-0.3-2.2c-0.2-0.6-0.5-1.1-0.9-1.5s-1.1-0.5-1.9-0.5c-1.2,0-2.3,0.3-3.1,0.8c-0.8,0.6-1.5,1.2-2,1.9
		v11.8H450.7z"/>
	<path class="st9" d="M475.7,452.7c-1.4,0-2.5-0.3-3.5-1s-1.8-1.6-2.3-2.9s-0.8-2.9-0.8-4.8s0.3-3.5,0.9-4.7
		c0.6-1.3,1.4-2.2,2.4-2.9c1-0.6,2.3-1,3.7-1c1.2,0,2.2,0.3,3.1,0.8s1.6,1.2,2.1,2.1v-9h2.9v23h-2.7l-0.2-2.4
		c-0.6,0.8-1.4,1.5-2.3,2C478,452.5,476.9,452.7,475.7,452.7z M476.2,450.4c1.2,0,2.2-0.3,3-0.9s1.5-1.3,2-2.1V441
		c-0.5-0.9-1.1-1.7-1.8-2.3s-1.7-0.9-2.9-0.9c-1.5,0-2.7,0.5-3.4,1.6c-0.8,1.1-1.2,2.6-1.2,4.6c0,2.1,0.4,3.6,1.1,4.7
		C473.8,449.9,474.8,450.4,476.2,450.4z"/>
	<path class="st9" d="M271.1,494.7c-1.6,0-3.1-0.3-4.4-0.8s-2.4-1.3-3.2-2.4c-0.8-1.1-1.2-2.5-1.2-4.2h3.1c0,1.2,0.3,2.2,0.8,2.9
		c0.5,0.7,1.2,1.2,2.1,1.5s1.8,0.4,2.9,0.4c1,0,1.9-0.1,2.7-0.4c0.8-0.3,1.4-0.7,1.9-1.3s0.7-1.3,0.7-2.3c0-0.8-0.2-1.5-0.6-2
		s-1-1-1.9-1.3c-0.9-0.4-2-0.8-3.5-1.1c-1.7-0.5-3.2-1-4.3-1.5c-1.1-0.5-1.9-1.2-2.5-2c-0.5-0.8-0.8-1.8-0.8-3.1
		c0-1.3,0.3-2.4,0.9-3.3s1.5-1.6,2.6-2c1.2-0.5,2.5-0.7,4.1-0.7c1.5,0,2.8,0.2,4.1,0.7s2.2,1.2,2.9,2.2c0.7,1,1.1,2.1,1.1,3.6h-3.1
		c0-1.3-0.5-2.3-1.4-2.9c-1-0.7-2.2-1-3.6-1c-1.5,0-2.6,0.3-3.4,0.9s-1.2,1.4-1.2,2.6c0,0.7,0.2,1.2,0.5,1.7c0.4,0.5,1,0.9,1.8,1.2
		c0.9,0.4,2.1,0.7,3.6,1.1c1.8,0.5,3.2,1,4.3,1.5c1.1,0.5,1.9,1.2,2.5,2.1c0.5,0.9,0.8,2,0.8,3.4c0,1.5-0.4,2.7-1.1,3.7
		s-1.7,1.7-3,2.2C274.2,494.5,272.7,494.7,271.1,494.7z"/>
	<path class="st9" d="M291,494.7c-1.8,0-3.3-0.4-4.5-1.1c-1.2-0.8-2-1.8-2.6-3.1c-0.6-1.3-0.8-2.8-0.8-4.4c0-1.7,0.3-3.2,0.8-4.5
		s1.4-2.3,2.5-3s2.5-1.1,4.2-1.1c2.3,0,4,0.7,5.3,2.1s1.9,3.3,1.9,5.9c0,0.2,0,0.4,0,0.6s0,0.4-0.1,0.5H286c0,1.1,0.2,2.1,0.5,3
		s0.9,1.6,1.6,2.2c0.7,0.5,1.7,0.8,2.9,0.8c1.3,0,2.3-0.3,3-0.9s1.1-1.5,1.1-2.6h2.8c0,1.2-0.3,2.2-0.9,3s-1.4,1.5-2.4,2
		C293.6,494.5,292.4,494.7,291,494.7z M286,484.5h9.1c0-1.5-0.4-2.7-1.2-3.6c-0.8-0.8-1.9-1.2-3.2-1.2c-1.4,0-2.5,0.4-3.3,1.2
		S286.2,482.9,286,484.5z"/>
	<path class="st9" d="M309.3,494.7c-1.5,0-2.8-0.3-4-0.9s-2.1-1.6-2.7-2.9s-1-2.9-1-4.8s0.3-3.5,1-4.8c0.6-1.3,1.5-2.2,2.7-2.9
		c1.2-0.6,2.5-1,4-1c1.3,0,2.4,0.2,3.5,0.6c1,0.4,1.9,1.1,2.5,1.9s0.9,1.9,1,3.2h-2.8c-0.1-1.1-0.5-1.9-1.2-2.5s-1.7-0.9-2.9-0.9
		c-1.6,0-2.8,0.6-3.6,1.7c-0.8,1.1-1.2,2.7-1.2,4.7c0,1.3,0.2,2.5,0.5,3.4c0.4,0.9,0.9,1.6,1.6,2.1s1.6,0.7,2.7,0.7
		c1.2,0,2.2-0.3,3-0.9s1.2-1.6,1.2-2.8h2.8c0,1.3-0.4,2.5-1,3.4s-1.5,1.6-2.5,2C311.8,494.5,310.6,494.7,309.3,494.7z"/>
	<path class="st9" d="M326,494.7c-1.9,0-3.3-0.5-4.2-1.6c-0.9-1.1-1.3-2.5-1.3-4.4v-10.9h2.9v10.5c0,0.8,0.1,1.4,0.3,2
		c0.2,0.6,0.5,1.1,1,1.4s1.2,0.5,2.1,0.5c1.3,0,2.3-0.3,3.1-0.8c0.8-0.5,1.5-1.1,2-1.8v-11.8h2.9v16.6H332l-0.1-2.6
		c-0.5,0.7-1.3,1.3-2.3,1.9C328.7,494.4,327.5,494.7,326,494.7z"/>
	<path class="st9" d="M340.3,494.4v-16.6h2.7l0.1,2.8c0.5-0.9,1.1-1.6,1.9-2.2s1.9-0.9,3.2-0.9h0.3v2.6h-0.4c-0.8,0-1.6,0.1-2.2,0.3
		c-0.6,0.2-1.2,0.5-1.6,0.9c-0.5,0.4-0.9,0.8-1.2,1.3v11.7h-2.8V494.4z"/>
	<path class="st9" d="M358.5,494.7c-1.8,0-3.3-0.4-4.5-1.1c-1.2-0.8-2-1.8-2.6-3.1c-0.6-1.3-0.8-2.8-0.8-4.4c0-1.7,0.3-3.2,0.8-4.5
		s1.4-2.3,2.5-3s2.5-1.1,4.2-1.1c2.3,0,4,0.7,5.3,2.1s1.9,3.3,1.9,5.9c0,0.2,0,0.4,0,0.6s0,0.4-0.1,0.5h-11.9c0,1.1,0.2,2.1,0.5,3
		s0.9,1.6,1.6,2.2c0.7,0.5,1.7,0.8,2.9,0.8c1.3,0,2.3-0.3,3-0.9s1.1-1.5,1.1-2.6h2.8c0,1.2-0.3,2.2-0.9,3s-1.4,1.5-2.4,2
		C361.1,494.5,359.9,494.7,358.5,494.7z M353.5,484.5h9.1c0-1.5-0.4-2.7-1.2-3.6c-0.8-0.8-1.9-1.2-3.2-1.2c-1.4,0-2.5,0.4-3.3,1.2
		C354,481.7,353.6,482.9,353.5,484.5z"/>
	<path class="st9" d="M381.1,494.4l-6.7-23h3.2l5.2,19.2l5.5-19.2h3.4l5.5,19.2l5.2-19.2h3.1l-6.7,23h-3.2l-5.7-19.4l-5.6,19.4
		H381.1z"/>
	<path class="st9" d="M409.7,474.7c-0.5,0-1-0.2-1.3-0.5s-0.5-0.7-0.5-1.2s0.2-0.9,0.5-1.2c0.3-0.3,0.8-0.5,1.3-0.5s1,0.2,1.3,0.5
		s0.5,0.7,0.5,1.2s-0.2,0.9-0.5,1.2C410.7,474.5,410.3,474.7,409.7,474.7z M408.3,494.4v-16.6h2.9v16.6H408.3z"/>
	<path class="st9" d="M415.6,487.2v-2.5h8.5v2.5H415.6z"/>
	<path class="st9" d="M428.8,494.4v-23h14.3v2.6h-11.2v7.3h10.2v2.5h-10.2v10.6H428.8z"/>
	<path class="st9" d="M447.8,474.7c-0.5,0-1-0.2-1.3-0.5s-0.5-0.7-0.5-1.2s0.2-0.9,0.5-1.2c0.3-0.3,0.8-0.5,1.3-0.5s1,0.2,1.3,0.5
		s0.5,0.7,0.5,1.2s-0.2,0.9-0.5,1.2C448.8,474.5,448.4,474.7,447.8,474.7z M446.4,494.4v-16.6h2.9v16.6H446.4z"/>
</g>
<g>
	<g>
		<g>
			<path class="st7" d="M169.2,251.3H77.5c-1.4,0-2.9,1.4-2.9,2.9c0,6.5,5.4,11.5,11.9,11.5h74.1c6.5,0,11.9-5.4,11.9-11.5
				C172.1,252.8,171,251.3,169.2,251.3z M160.6,261H86.5c-3.2,0-5.8-2.2-6.5-5h87.1C166,259.2,163.5,261,160.6,261z"/>
			<path class="st7" d="M89.3,207.4c0-2.5,2.2-5,5-5H153c2.5,0,5,2.2,5,5v38.9h5v-38.9c0-5.4-4.3-9.7-9.7-9.7H94
				c-5.4,0-9.7,4.3-9.7,9.7v38.9h5V207.4z"/>
			<path class="st7" d="M145.1,204.9v4.7c0,5.4,4.7,10.1,10.1,10.1h0.4v-5h-0.4c-2.9,0-5-2.2-5-5V205h-5.1V204.9z"/>
			<path class="st7" d="M225.7,154.1h-70.5c-5.4,0-10.1,4.7-10.1,10.1v30.2v1.1h5v-1.1v-30.2c0-2.9,2.2-5,5-5h70.5c2.9,0,5,2.2,5,5
				v45.3c0,2.9-2.2,5-5,5h-26.3l0,0h-17.6l0,0H166h-1.4v5H179l-1.8,10.1h-9.4c-1.4,0-2.5,1.1-2.5,2.5s1.1,2.5,2.5,2.5h11.5H202h11.5
				c1.4,0,2.5-1.1,2.5-2.5s-1.1-2.5-2.5-2.5h-9.4l-1.8-10.1h23.4c5.4,0,10.1-4.7,10.1-10.1v-45.3
				C235.8,158.5,231.5,154.1,225.7,154.1z M182.2,229.7l1.8-10.1l0,0h13.3l1.8,10.1H182.2z"/>
			<path class="st7" d="M105.5,247.7v-12.6c0-5.4-4.7-10.1-10.1-10.1h-2.2v5h2.2c2.9,0,5,2.2,5,5v12.6h5.1V247.7z"/>
			<path class="st7" d="M75.3,293.4h10.1c1.4,0,2.5-1.1,2.5-2.5s-1.1-2.5-2.5-2.5H75.3c-1.4,0-2.5,1.1-2.5,2.5
				S73.9,293.4,75.3,293.4z"/>
		</g>
		<path class="st7" d="M100.5,269.7v6.1H60.2v-40.3c0-2.9,2.2-5,5-5h15.1v-5H65.2c-5.4,0-10.1,4.7-10.1,10.1v60.8
			c0,5.4,4.7,10.1,10.1,10.1h30.2c5.4,0,10.1-4.7,10.1-10.1v-26.6h-5V269.7z M100.5,295.9c0,2.9-2.2,5-5,5H65.2c-2.9,0-5-2.2-5-5
			v-15.1h40.3V295.9z"/>
	</g>
</g>
<g>
	<path d="M493,80.3l8.5-23h4.1l8.4,23h-4.1l-1.9-5.7h-9l-2,5.7H493z M500,71.3h6.9l-3.5-10.1L500,71.3z"/>
	<path d="M521.9,80.6c-1.8,0-3.2-0.5-4.1-1.6c-0.9-1.1-1.3-2.5-1.3-4.4V63.7h3.7v10.4c0,0.7,0.1,1.2,0.3,1.8
		c0.2,0.5,0.5,0.9,0.9,1.2c0.4,0.3,1,0.4,1.8,0.4c1.1,0,2-0.2,2.7-0.7s1.4-1,1.9-1.6V63.7h3.7v16.7h-3.6l-0.1-2.5
		c-0.5,0.7-1.3,1.3-2.3,1.9C524.5,80.3,523.3,80.6,521.9,80.6z"/>
	<path d="M542.9,80.3c-1.5,0-2.7-0.2-3.5-0.6s-1.4-1-1.7-1.9s-0.5-1.9-0.5-3.1v-8.2h-2.8v-2.9h2.8v-3.9h3.7v3.9h3.9v2.9h-3.9v7.9
		c0,1,0.1,1.7,0.4,2.2c0.3,0.5,0.9,0.7,1.8,0.7h1.7v2.9L542.9,80.3L542.9,80.3z"/>
	<path d="M548.5,80.3v-23h3.6v8.9c0.5-0.7,1.3-1.3,2.2-1.9s2.1-0.9,3.6-0.9c1.8,0,3.1,0.5,4,1.6c0.9,1,1.3,2.6,1.3,4.5v10.8h-3.7V70
		c0-0.7-0.1-1.3-0.2-1.9c-0.2-0.5-0.4-1-0.8-1.3c-0.4-0.3-1-0.5-1.7-0.5c-1.1,0-2,0.2-2.7,0.7s-1.4,1.1-1.9,1.7v11.5h-3.7V80.3z"/>
	<path d="M575.5,80.6c-1.8,0-3.3-0.4-4.6-1.1c-1.2-0.7-2.1-1.7-2.7-3c-0.6-1.3-0.9-2.8-0.9-4.5s0.3-3.2,0.9-4.5
		c0.6-1.3,1.5-2.3,2.6-3c1.2-0.7,2.6-1.1,4.4-1.1c2.4,0,4.2,0.7,5.6,2.1c1.4,1.4,2.1,3.4,2.1,6c0,0.2,0,0.4,0,0.6s0,0.4-0.1,0.5H571
		c0,0.9,0.2,1.8,0.5,2.6c0.3,0.8,0.8,1.4,1.4,1.9c0.7,0.5,1.5,0.7,2.6,0.7s2-0.3,2.7-0.8s1-1.3,1-2.2h3.6c-0.1,1.2-0.4,2.3-1,3.1
		s-1.5,1.5-2.5,2C578.3,80.4,577,80.6,575.5,80.6z M571.1,70.2h8.2c0-1.3-0.4-2.4-1.1-3.1c-0.7-0.7-1.7-1.1-2.9-1.1
		s-2.2,0.4-2.9,1.1C571.6,67.8,571.2,68.9,571.1,70.2z"/>
	<path d="M587.2,80.3V63.7h3.6l0.1,2.5c0.5-0.7,1.3-1.3,2.2-1.9s2.1-0.9,3.6-0.9c1.8,0,3.1,0.5,4,1.6s1.3,2.6,1.3,4.5v10.8h-3.7V70
		c0-0.7-0.1-1.3-0.3-1.9c-0.2-0.5-0.5-1-0.9-1.3s-1-0.5-1.7-0.5c-1.1,0-2,0.2-2.7,0.7s-1.4,1.1-1.9,1.7v11.5h-3.6V80.3z"/>
	<path d="M613.3,80.3c-1.5,0-2.7-0.2-3.5-0.6s-1.4-1-1.7-1.9s-0.5-1.9-0.5-3.1v-8.2h-2.8v-2.9h2.8v-3.9h3.7v3.9h3.9v2.9h-3.9v7.9
		c0,1,0.1,1.7,0.4,2.2c0.3,0.5,0.9,0.7,1.8,0.7h1.7v2.9L613.3,80.3L613.3,80.3z"/>
	<path d="M620.7,61c-0.7,0-1.2-0.2-1.6-0.5c-0.4-0.4-0.6-0.8-0.6-1.4c0-0.6,0.2-1,0.6-1.4c0.4-0.4,0.9-0.5,1.6-0.5
		c0.7,0,1.2,0.2,1.6,0.5c0.4,0.4,0.6,0.8,0.6,1.4c0,0.6-0.2,1-0.6,1.4C621.9,60.8,621.4,61,620.7,61z M618.8,80.3V63.7h3.7v16.7
		L618.8,80.3L618.8,80.3z"/>
	<path d="M634.9,80.6c-1.5,0-2.9-0.3-4.1-0.9c-1.2-0.6-2.2-1.5-2.9-2.8s-1.1-2.9-1.1-4.8s0.3-3.6,1-4.8c0.7-1.3,1.6-2.2,2.8-2.9
		c1.2-0.6,2.6-0.9,4.2-0.9c1.3,0,2.6,0.2,3.6,0.7c1.1,0.4,1.9,1.1,2.6,2s1,2,1,3.4h-3.6c-0.1-1-0.4-1.7-1-2.3
		c-0.6-0.6-1.5-0.8-2.6-0.8c-1.5,0-2.6,0.5-3.2,1.5c-0.7,1-1,2.4-1,4.2c0,1.2,0.2,2.2,0.5,3s0.8,1.5,1.4,1.9
		c0.6,0.4,1.4,0.7,2.4,0.7c1.1,0,2-0.3,2.7-0.9s1-1.4,1.1-2.6h3.6c0,1.4-0.4,2.6-1,3.5c-0.7,0.9-1.5,1.7-2.6,2.1
		S636.2,80.6,634.9,80.6z"/>
	<path d="M650.7,80.6c-1,0-1.8-0.2-2.6-0.5c-0.8-0.4-1.5-0.9-1.9-1.6c-0.5-0.7-0.7-1.6-0.7-2.7c0-1.5,0.5-2.7,1.4-3.4
		c0.9-0.8,2.2-1.3,3.9-1.6c1.7-0.3,3.6-0.4,5.9-0.5v-1c0-1.2-0.3-2.1-0.9-2.6c-0.6-0.5-1.4-0.7-2.3-0.7c-1,0-1.9,0.3-2.6,0.8
		c-0.7,0.5-1,1.3-1,2.4h-3.5c0-1.4,0.3-2.5,0.9-3.3c0.6-0.8,1.4-1.4,2.5-1.8s2.3-0.6,3.7-0.6c0.9,0,1.8,0.1,2.7,0.3
		c0.8,0.2,1.6,0.5,2.2,0.9c0.6,0.4,1.1,1,1.5,1.8c0.4,0.7,0.5,1.7,0.5,2.9v11.2h-3.5l-0.1-2.3c-0.7,0.8-1.6,1.5-2.6,1.9
		C653.1,80.4,652,80.6,650.7,80.6z M651.8,78c1,0,1.9-0.2,2.7-0.7s1.5-1.1,2-1.8v-3c-2.7,0-4.6,0.3-5.8,0.8
		c-1.1,0.5-1.7,1.3-1.7,2.4c0,0.8,0.2,1.4,0.7,1.8C650.3,77.8,650.9,78,651.8,78z"/>
	<path d="M671.3,80.3c-1.5,0-2.7-0.2-3.5-0.6s-1.4-1-1.7-1.9s-0.5-1.9-0.5-3.1v-8.2h-2.8v-2.9h2.8v-3.9h3.7v3.9h3.9v2.9h-3.9v7.9
		c0,1,0.1,1.7,0.4,2.2c0.3,0.5,0.9,0.7,1.8,0.7h1.7v2.9L671.3,80.3L671.3,80.3z"/>
	<path d="M683.8,80.6c-1.7,0-3.1-0.3-4.3-1s-2.1-1.7-2.8-2.9c-0.7-1.3-1-2.8-1-4.6c0-1.8,0.3-3.4,1-4.7c0.7-1.3,1.6-2.3,2.8-3
		c1.2-0.7,2.6-1,4.3-1s3.2,0.3,4.4,1c1.2,0.7,2.2,1.7,2.8,3c0.7,1.3,1,2.9,1,4.7c0,1.8-0.3,3.3-1,4.6c-0.7,1.3-1.6,2.3-2.8,2.9
		C687,80.3,685.5,80.6,683.8,80.6z M683.8,77.7c1.1,0,2-0.2,2.6-0.8c0.7-0.5,1.1-1.2,1.4-2s0.4-1.8,0.4-2.9s-0.1-2.1-0.4-3
		c-0.3-0.9-0.7-1.6-1.4-2.1c-0.6-0.5-1.5-0.8-2.6-0.8s-1.9,0.3-2.5,0.8s-1.1,1.2-1.3,2.1c-0.3,0.9-0.4,1.9-0.4,3s0.1,2,0.4,2.9
		s0.7,1.5,1.3,2C681.9,77.5,682.8,77.7,683.8,77.7z"/>
	<path d="M696.3,80.3V63.7h3.5l0.1,2.9c0.5-0.9,1.1-1.7,2-2.2c0.8-0.6,1.9-0.8,3.2-0.8h0.3v3.2H705c-0.8,0-1.5,0.1-2.1,0.2
		c-0.6,0.2-1.2,0.4-1.6,0.8c-0.5,0.3-0.9,0.8-1.3,1.3v11.4h-3.7V80.3z"/>
</g>
<g>
	<path d="M885,341.2l8.5-23h4.1l8.4,23h-4.1l-1.9-5.7h-8.9l-2,5.7H885z M892.1,332.2h6.9l-3.5-10.1L892.1,332.2z"/>
	<path d="M913.9,341.5c-1.8,0-3.2-0.5-4.1-1.6c-0.9-1.1-1.3-2.5-1.3-4.4v-10.9h3.7V335c0,0.7,0.1,1.2,0.3,1.8
		c0.2,0.5,0.5,0.9,0.9,1.2c0.4,0.3,1,0.4,1.8,0.4c1.1,0,2-0.2,2.7-0.7s1.4-1,1.9-1.6v-11.5h3.7v16.7h-3.6l-0.1-2.5
		c-0.5,0.7-1.3,1.3-2.3,1.9C916.6,341.2,915.4,341.5,913.9,341.5z"/>
	<path d="M935,341.2c-1.5,0-2.7-0.2-3.5-0.6s-1.4-1-1.7-1.9s-0.5-1.9-0.5-3.1v-8.2h-2.8v-2.9h2.8v-3.9h3.7v3.9h3.9v2.9H933v7.9
		c0,1,0.1,1.7,0.4,2.2c0.3,0.5,0.9,0.7,1.8,0.7h1.7v2.9H935V341.2z"/>
	<path d="M940.5,341.2v-23h3.6v8.9c0.5-0.7,1.3-1.3,2.2-1.9s2.1-0.9,3.6-0.9c1.8,0,3.1,0.5,4,1.6c0.9,1,1.3,2.6,1.3,4.5v10.8h-3.7
		v-10.3c0-0.7-0.1-1.3-0.2-1.9c-0.2-0.5-0.4-1-0.8-1.3c-0.4-0.3-1-0.5-1.7-0.5c-1.1,0-2,0.2-2.7,0.7s-1.4,1.1-1.9,1.7v11.5
		L940.5,341.2L940.5,341.2z"/>
	<path d="M967.6,341.5c-1.8,0-3.3-0.4-4.6-1.1c-1.2-0.7-2.1-1.7-2.7-3c-0.6-1.3-0.9-2.8-0.9-4.5s0.3-3.2,0.9-4.5
		c0.6-1.3,1.5-2.3,2.6-3c1.2-0.7,2.6-1.1,4.4-1.1c2.4,0,4.2,0.7,5.6,2.1c1.4,1.4,2.1,3.4,2.1,6c0,0.2,0,0.4,0,0.6s0,0.4-0.1,0.5
		h-11.8c0,0.9,0.2,1.8,0.5,2.6c0.3,0.8,0.8,1.4,1.4,1.9c0.7,0.5,1.5,0.7,2.6,0.7s2-0.3,2.7-0.8s1-1.3,1-2.2h3.6
		c-0.1,1.2-0.4,2.3-1,3.1s-1.5,1.5-2.5,2C970.3,341.3,969.1,341.5,967.6,341.5z M963.1,331.1h8.2c0-1.3-0.4-2.4-1.1-3.1
		c-0.7-0.7-1.7-1.1-2.9-1.1s-2.2,0.4-2.9,1.1C963.6,328.7,963.2,329.7,963.1,331.1z"/>
	<path d="M979.2,341.2v-16.7h3.6l0.1,2.5c0.5-0.7,1.3-1.3,2.2-1.9s2.1-0.9,3.6-0.9c1.8,0,3.1,0.5,4,1.6s1.3,2.6,1.3,4.5v10.8h-3.7
		v-10.3c0-0.7-0.1-1.3-0.3-1.9c-0.2-0.5-0.5-1-0.9-1.3s-1-0.5-1.7-0.5c-1.1,0-2,0.2-2.7,0.7s-1.4,1.1-1.9,1.7V341h-3.6V341.2z"/>
	<path d="M1005.4,341.2c-1.5,0-2.7-0.2-3.5-0.6s-1.4-1-1.7-1.9s-0.5-1.9-0.5-3.1v-8.2h-2.8v-2.9h2.8v-3.9h3.7v3.9h3.9v2.9h-3.9v7.9
		c0,1,0.1,1.7,0.4,2.2c0.3,0.5,0.9,0.7,1.8,0.7h1.7v2.9h-1.9V341.2z"/>
	<path d="M1012.8,321.9c-0.7,0-1.2-0.2-1.6-0.5c-0.4-0.4-0.6-0.8-0.6-1.4s0.2-1,0.6-1.4c0.4-0.4,0.9-0.5,1.6-0.5
		c0.7,0,1.2,0.2,1.6,0.5c0.4,0.4,0.6,0.8,0.6,1.4s-0.2,1-0.6,1.4C1014,321.7,1013.4,321.9,1012.8,321.9z M1010.9,341.2v-16.7h3.7
		v16.7H1010.9z"/>
	<path d="M1026.9,341.5c-1.5,0-2.9-0.3-4.1-0.9c-1.2-0.6-2.2-1.5-2.9-2.8s-1.1-2.9-1.1-4.8s0.3-3.6,1-4.8c0.7-1.3,1.6-2.2,2.8-2.9
		c1.2-0.6,2.6-0.9,4.2-0.9c1.3,0,2.6,0.2,3.6,0.7c1.1,0.4,1.9,1.1,2.6,2s1,2,1,3.4h-3.6c-0.1-1-0.4-1.7-1-2.3
		c-0.6-0.6-1.5-0.8-2.6-0.8c-1.5,0-2.6,0.5-3.2,1.5c-0.7,1-1,2.4-1,4.2c0,1.2,0.2,2.2,0.5,3s0.8,1.5,1.4,1.9s1.4,0.7,2.4,0.7
		c1.1,0,2-0.3,2.7-0.9s1-1.4,1.1-2.6h3.6c0,1.4-0.4,2.6-1,3.5c-0.7,0.9-1.5,1.7-2.6,2.1S1028.3,341.5,1026.9,341.5z"/>
	<path d="M1042.7,341.5c-1,0-1.8-0.2-2.6-0.5c-0.8-0.4-1.5-0.9-1.9-1.6c-0.5-0.7-0.7-1.6-0.7-2.7c0-1.5,0.5-2.7,1.4-3.4
		c0.9-0.8,2.2-1.3,3.9-1.6c1.7-0.3,3.6-0.4,5.9-0.5v-1c0-1.2-0.3-2.1-0.9-2.6s-1.4-0.7-2.3-0.7c-1,0-1.9,0.3-2.6,0.8s-1,1.3-1,2.4
		h-3.5c0-1.4,0.3-2.5,0.9-3.3s1.4-1.4,2.5-1.8s2.3-0.6,3.7-0.6c0.9,0,1.8,0.1,2.7,0.3c0.8,0.2,1.6,0.5,2.2,0.9s1.1,1,1.5,1.8
		c0.4,0.7,0.5,1.7,0.5,2.9v11.2h-3.5l-0.1-2.3c-0.7,0.8-1.6,1.5-2.6,1.9C1045.1,341.3,1044,341.5,1042.7,341.5z M1043.8,338.9
		c1,0,1.9-0.2,2.7-0.7c0.8-0.5,1.5-1.1,2-1.8v-3c-2.7,0-4.6,0.3-5.8,0.8c-1.1,0.5-1.7,1.3-1.7,2.4c0,0.8,0.2,1.4,0.7,1.8
		C1042.3,338.7,1043,338.9,1043.8,338.9z"/>
	<path d="M1063.3,341.2c-1.5,0-2.7-0.2-3.5-0.6s-1.4-1-1.7-1.9s-0.5-1.9-0.5-3.1v-8.2h-2.8v-2.9h2.8v-3.9h3.7v3.9h3.9v2.9h-3.9v7.9
		c0,1,0.1,1.7,0.4,2.2s0.9,0.7,1.8,0.7h1.7v2.9h-1.9V341.2z"/>
	<path d="M1070.7,321.9c-0.7,0-1.2-0.2-1.6-0.5c-0.4-0.4-0.6-0.8-0.6-1.4s0.2-1,0.6-1.4s0.9-0.5,1.6-0.5s1.2,0.2,1.6,0.5
		c0.4,0.4,0.6,0.8,0.6,1.4s-0.2,1-0.6,1.4C1072,321.7,1071.4,321.9,1070.7,321.9z M1068.9,341.2v-16.7h3.7v16.7H1068.9z"/>
	<path d="M1084.9,341.5c-1.7,0-3.1-0.3-4.3-1c-1.2-0.7-2.1-1.7-2.8-2.9c-0.7-1.3-1-2.8-1-4.6c0-1.8,0.3-3.4,1-4.7
		c0.7-1.3,1.6-2.3,2.8-3c1.2-0.7,2.6-1,4.3-1c1.7,0,3.2,0.3,4.4,1c1.2,0.7,2.2,1.7,2.8,3c0.7,1.3,1,2.9,1,4.7c0,1.8-0.3,3.3-1,4.6
		c-0.7,1.3-1.6,2.3-2.8,2.9C1088.1,341.2,1086.6,341.5,1084.9,341.5z M1084.9,338.6c1.1,0,2-0.2,2.6-0.8c0.7-0.5,1.1-1.2,1.4-2
		s0.4-1.8,0.4-2.9s-0.1-2.1-0.4-3s-0.7-1.6-1.4-2.1c-0.6-0.5-1.5-0.8-2.6-0.8s-1.9,0.3-2.5,0.8s-1.1,1.2-1.3,2.1
		c-0.3,0.9-0.4,1.9-0.4,3s0.1,2,0.4,2.9s0.7,1.5,1.3,2C1083,338.4,1083.9,338.6,1084.9,338.6z"/>
	<path d="M1097.4,341.2v-16.7h3.6l0.1,2.5c0.5-0.7,1.3-1.3,2.2-1.9c0.9-0.6,2.1-0.9,3.6-0.9c1.8,0,3.1,0.5,4,1.6s1.3,2.6,1.3,4.5
		v10.8h-3.7v-10.3c0-0.7-0.1-1.3-0.3-1.9c-0.2-0.5-0.5-1-0.9-1.3s-1-0.5-1.7-0.5c-1.1,0-2,0.2-2.7,0.7s-1.4,1.1-1.9,1.7V341h-3.6
		V341.2z"/>
	<path d="M1132.1,341.5c-1.7,0-3.2-0.3-4.6-0.8s-2.4-1.3-3.2-2.4c-0.8-1.1-1.2-2.5-1.2-4.2h4c0,1,0.3,1.9,0.7,2.5
		c0.5,0.6,1.1,1,1.8,1.3c0.8,0.3,1.6,0.4,2.6,0.4c0.9,0,1.7-0.1,2.4-0.4c0.7-0.2,1.3-0.6,1.7-1.1c0.4-0.5,0.6-1.1,0.6-1.9
		c0-0.7-0.2-1.3-0.5-1.7c-0.3-0.5-0.9-0.9-1.7-1.2c-0.8-0.3-1.9-0.7-3.3-1.1c-1.7-0.4-3-0.9-4.2-1.5c-1.1-0.5-2-1.2-2.6-2.1
		c-0.6-0.8-0.9-1.9-0.9-3.2c0-1.4,0.3-2.6,1-3.5s1.6-1.6,2.8-2.1c1.2-0.5,2.6-0.7,4.2-0.7c1.5,0,2.9,0.2,4.2,0.7s2.3,1.2,3.1,2.2
		c0.8,1,1.1,2.2,1.1,3.7h-4c0-1.1-0.4-2-1.3-2.6s-1.9-0.9-3.1-0.9s-2.2,0.2-3,0.7c-0.7,0.5-1.1,1.2-1.1,2.2c0,0.6,0.2,1,0.5,1.4
		s0.9,0.8,1.7,1.1s2,0.7,3.5,1.1c1.8,0.5,3.2,1,4.3,1.6c1.1,0.6,1.9,1.3,2.5,2.1c0.5,0.9,0.8,2,0.8,3.4c0,1.5-0.4,2.8-1.2,3.8
		c-0.8,1-1.8,1.7-3.1,2.2C1135.2,341.3,1133.7,341.5,1132.1,341.5z"/>
	<path d="M1152.4,341.5c-1.8,0-3.3-0.4-4.6-1.1c-1.2-0.7-2.1-1.7-2.7-3s-0.9-2.8-0.9-4.5s0.3-3.2,0.9-4.5s1.5-2.3,2.6-3
		c1.2-0.7,2.6-1.1,4.4-1.1c2.4,0,4.2,0.7,5.6,2.1s2.1,3.4,2.1,6c0,0.2,0,0.4,0,0.6s0,0.4-0.1,0.5h-11.8c0,0.9,0.2,1.8,0.5,2.6
		c0.3,0.8,0.8,1.4,1.4,1.9c0.7,0.5,1.5,0.7,2.6,0.7s2-0.3,2.7-0.8s1-1.3,1-2.2h3.6c-0.1,1.2-0.4,2.3-1,3.1s-1.5,1.5-2.5,2
		C1155.2,341.3,1153.9,341.5,1152.4,341.5z M1148,331.1h8.2c0-1.3-0.4-2.4-1.1-3.1s-1.7-1.1-2.9-1.1c-1.2,0-2.2,0.4-2.9,1.1
		C1148.5,328.7,1148.1,329.7,1148,331.1z"/>
	<path d="M1164.1,341.2v-16.7h3.5l0.1,2.9c0.5-0.9,1.1-1.7,2-2.2c0.8-0.6,1.9-0.8,3.2-0.8h0.3v3.2h-0.4c-0.8,0-1.5,0.1-2.1,0.2
		c-0.6,0.2-1.2,0.4-1.6,0.8c-0.5,0.3-0.9,0.8-1.3,1.3v11.4L1164.1,341.2L1164.1,341.2z"/>
	<path d="M1180.6,341.2l-6.2-16.7h3.9l4.4,13.1l4.5-13.1h3.7l-6.2,16.7H1180.6z"/>
	<path d="M1200.4,341.5c-1.8,0-3.3-0.4-4.6-1.1c-1.2-0.7-2.1-1.7-2.7-3s-0.9-2.8-0.9-4.5s0.3-3.2,0.9-4.5s1.5-2.3,2.6-3
		c1.2-0.7,2.6-1.1,4.4-1.1c2.4,0,4.2,0.7,5.6,2.1s2.1,3.4,2.1,6c0,0.2,0,0.4,0,0.6s0,0.4-0.1,0.5h-11.8c0,0.9,0.2,1.8,0.5,2.6
		c0.3,0.8,0.8,1.4,1.4,1.9c0.7,0.5,1.5,0.7,2.6,0.7s2-0.3,2.7-0.8s1-1.3,1-2.2h3.6c-0.1,1.2-0.4,2.3-1,3.1s-1.5,1.5-2.5,2
		C1203.2,341.3,1201.9,341.5,1200.4,341.5z M1196,331.1h8.2c0-1.3-0.4-2.4-1.1-3.1s-1.7-1.1-2.9-1.1c-1.2,0-2.2,0.4-2.9,1.1
		C1196.5,328.7,1196.1,329.7,1196,331.1z"/>
	<path d="M1212.1,341.2v-16.7h3.5l0.1,2.9c0.5-0.9,1.1-1.7,2-2.2c0.8-0.6,1.9-0.8,3.2-0.8h0.3v3.2h-0.4c-0.8,0-1.5,0.1-2.1,0.2
		c-0.6,0.2-1.2,0.4-1.6,0.8c-0.5,0.3-0.9,0.8-1.3,1.3v11.4L1212.1,341.2L1212.1,341.2z"/>
</g>
<g>
	<path class="st11" d="M1030.4,228.3l-2-7.1H1016l-2,7.1h-6.7l10.6-35.7h9.4l10.6,35.7H1030.4z M1022.3,199.2l-4.7,16.6h9.4
		L1022.3,199.2z"/>
	<path class="st11" d="M1061.2,228.3l-2-7.1h-12.5l-2,7.1h-6.7l10.6-35.7h9.4l10.6,35.7H1061.2z M1053.1,199.2l-4.7,16.6h9.4
		L1053.1,199.2z"/>
	<path class="st11" d="M1092,228.3l-2-7.1h-12.5l-2,7.1h-6.7l10.6-35.7h9.4l10.6,35.7H1092z M1083.9,199.2l-4.7,16.6h9.4
		L1083.9,199.2z"/>
</g>
</svg>
